<?xml version="1.0" encoding="UTF-8" standalone="no"?>
<!-- Created with Inkscape (http://www.inkscape.org/) -->

<svg
   xmlns:dc="http://purl.org/dc/elements/1.1/"
   xmlns:cc="http://creativecommons.org/ns#"
   xmlns:rdf="http://www.w3.org/1999/02/22-rdf-syntax-ns#"
   xmlns:svg="http://www.w3.org/2000/svg"
   xmlns="http://www.w3.org/2000/svg"
   xmlns:xlink="http://www.w3.org/1999/xlink"
   xmlns:sodipodi="http://sodipodi.sourceforge.net/DTD/sodipodi-0.dtd"
   xmlns:inkscape="http://www.inkscape.org/namespaces/inkscape"
   width="1400"
   height="1400"
   id="svg5357"
   version="1.1"
   inkscape:version="0.48.2 r9819"
   sodipodi:docname="cloud.svg">
  <defs
     id="defs5359">
    <linearGradient
       id="linearGradient6849">
      <stop
         style="stop-color:#6a7346;stop-opacity:1;"
         offset="0"
         id="stop6851" />
      <stop
         style="stop-color:#abc837;stop-opacity:1"
         offset="1"
         id="stop6853" />
    </linearGradient>
    <linearGradient
       id="linearGradient6837">
      <stop
         style="stop-color:#668000;stop-opacity:1"
         offset="0"
         id="stop6839" />
      <stop
         id="stop6845"
         offset="0.5"
         style="stop-color:#668000;stop-opacity:1" />
      <stop
         style="stop-color:#97af36;stop-opacity:1;"
         offset="0.7884286"
         id="stop6847" />
      <stop
         style="stop-color:#bcd35f;stop-opacity:1"
         offset="1"
         id="stop6841" />
    </linearGradient>
    <filter
       color-interpolation-filters="sRGB"
       id="filter5245"
       inkscape:label="Drop shadow"
       width="1.5"
       height="1.5"
       x="-0.25"
       y="-0.25">
      <feGaussianBlur
         id="feGaussianBlur5247"
         in="SourceAlpha"
         stdDeviation="0.1"
         result="blur" />
      <feColorMatrix
         id="feColorMatrix5249"
         result="bluralpha"
         type="matrix"
         values="1 0 0 0 0 0 1 0 0 0 0 0 1 0 0 0 0 0 0.3 0 " />
      <feOffset
         id="feOffset5251"
         in="bluralpha"
         dx="0"
         dy="8"
         result="offsetBlur" />
      <feMerge
         id="feMerge5253">
        <feMergeNode
           id="feMergeNode5255"
           in="offsetBlur" />
        <feMergeNode
           id="feMergeNode5257"
           in="SourceGraphic" />
      </feMerge>
    </filter>
    <filter
       color-interpolation-filters="sRGB"
       id="filter5287"
       inkscape:label="Drop shadow"
       width="1.5"
       height="1.5"
       x="-0.25"
       y="-0.25">
      <feGaussianBlur
         id="feGaussianBlur5289"
         in="SourceAlpha"
         stdDeviation="0.1"
         result="blur" />
      <feColorMatrix
         id="feColorMatrix5291"
         result="bluralpha"
         type="matrix"
         values="1 0 0 0 0 0 1 0 0 0 0 0 1 0 0 0 0 0 0.3 0 " />
      <feOffset
         id="feOffset5293"
         in="bluralpha"
         dx="0"
         dy="8"
         result="offsetBlur" />
      <feMerge
         id="feMerge5295">
        <feMergeNode
           id="feMergeNode5297"
           in="offsetBlur" />
        <feMergeNode
           id="feMergeNode5299"
           in="SourceGraphic" />
      </feMerge>
    </filter>
    <filter
       color-interpolation-filters="sRGB"
       id="filter5273"
       inkscape:label="Drop shadow"
       width="1.5"
       height="1.5"
       x="-0.25"
       y="-0.25">
      <feGaussianBlur
         id="feGaussianBlur5275"
         in="SourceAlpha"
         stdDeviation="0.1"
         result="blur" />
      <feColorMatrix
         id="feColorMatrix5277"
         result="bluralpha"
         type="matrix"
         values="1 0 0 0 0 0 1 0 0 0 0 0 1 0 0 0 0 0 0.3 0 " />
      <feOffset
         id="feOffset5279"
         in="bluralpha"
         dx="0"
         dy="8"
         result="offsetBlur" />
      <feMerge
         id="feMerge5281">
        <feMergeNode
           id="feMergeNode5283"
           in="offsetBlur" />
        <feMergeNode
           id="feMergeNode5285"
           in="SourceGraphic" />
      </feMerge>
    </filter>
    <filter
       color-interpolation-filters="sRGB"
       id="filter5259"
       inkscape:label="Drop shadow"
       width="1.5"
       height="1.5"
       x="-0.25"
       y="-0.25">
      <feGaussianBlur
         id="feGaussianBlur5261"
         in="SourceAlpha"
         stdDeviation="0.1"
         result="blur" />
      <feColorMatrix
         id="feColorMatrix5263"
         result="bluralpha"
         type="matrix"
         values="1 0 0 0 0 0 1 0 0 0 0 0 1 0 0 0 0 0 0.3 0 " />
      <feOffset
         id="feOffset5265"
         in="bluralpha"
         dx="0"
         dy="8"
         result="offsetBlur" />
      <feMerge
         id="feMerge5267">
        <feMergeNode
           id="feMergeNode5269"
           in="offsetBlur" />
        <feMergeNode
           id="feMergeNode5271"
           in="SourceGraphic" />
      </feMerge>
    </filter>
    <filter
       color-interpolation-filters="sRGB"
       id="filter5329"
       inkscape:label="Drop shadow"
       width="1.5"
       height="1.5"
       x="-0.25"
       y="-0.25">
      <feGaussianBlur
         id="feGaussianBlur5331"
         in="SourceAlpha"
         stdDeviation="0.1"
         result="blur" />
      <feColorMatrix
         id="feColorMatrix5333"
         result="bluralpha"
         type="matrix"
         values="1 0 0 0 0 0 1 0 0 0 0 0 1 0 0 0 0 0 0.3 0 " />
      <feOffset
         id="feOffset5335"
         in="bluralpha"
         dx="0"
         dy="8"
         result="offsetBlur" />
      <feMerge
         id="feMerge5337">
        <feMergeNode
           id="feMergeNode5339"
           in="offsetBlur" />
        <feMergeNode
           id="feMergeNode5341"
           in="SourceGraphic" />
      </feMerge>
    </filter>
    <filter
       color-interpolation-filters="sRGB"
       id="filter5315"
       inkscape:label="Drop shadow"
       width="1.5"
       height="1.5"
       x="-0.25"
       y="-0.25">
      <feGaussianBlur
         id="feGaussianBlur5317"
         in="SourceAlpha"
         stdDeviation="0.1"
         result="blur" />
      <feColorMatrix
         id="feColorMatrix5319"
         result="bluralpha"
         type="matrix"
         values="1 0 0 0 0 0 1 0 0 0 0 0 1 0 0 0 0 0 0.3 0 " />
      <feOffset
         id="feOffset5321"
         in="bluralpha"
         dx="0"
         dy="8"
         result="offsetBlur" />
      <feMerge
         id="feMerge5323">
        <feMergeNode
           id="feMergeNode5325"
           in="offsetBlur" />
        <feMergeNode
           id="feMergeNode5327"
           in="SourceGraphic" />
      </feMerge>
    </filter>
    <linearGradient
       inkscape:collect="always"
       xlink:href="#linearGradient4057"
       id="linearGradient4023"
       x1="337.99704"
       y1="410.30923"
       x2="339.41125"
       y2="780.83319"
       gradientUnits="userSpaceOnUse" />
    <linearGradient
       id="linearGradient4057"
       inkscape:collect="always">
      <stop
         id="stop4059"
         offset="0"
         style="stop-color:#ffffff;stop-opacity:1;" />
      <stop
         id="stop4061"
         offset="1"
         style="stop-color:#d5f6ff;stop-opacity:1" />
    </linearGradient>
    <filter
       color-interpolation-filters="sRGB"
       id="filter5301"
       inkscape:label="Drop shadow"
       width="1.5"
       height="1.5"
       x="-0.25"
       y="-0.25">
      <feGaussianBlur
         id="feGaussianBlur5303"
         in="SourceAlpha"
         stdDeviation="0.1"
         result="blur" />
      <feColorMatrix
         id="feColorMatrix5305"
         result="bluralpha"
         type="matrix"
         values="1 0 0 0 0 0 1 0 0 0 0 0 1 0 0 0 0 0 0.3 0 " />
      <feOffset
         id="feOffset5307"
         in="bluralpha"
         dx="0"
         dy="8"
         result="offsetBlur" />
      <feMerge
         id="feMerge5309">
        <feMergeNode
           id="feMergeNode5311"
           in="offsetBlur" />
        <feMergeNode
           id="feMergeNode5313"
           in="SourceGraphic" />
      </feMerge>
    </filter>
    <filter
       color-interpolation-filters="sRGB"
       id="filter5245-0"
       inkscape:label="Drop shadow"
       width="1.5"
       height="1.5"
       x="-0.25"
       y="-0.25">
      <feGaussianBlur
         id="feGaussianBlur5247-1"
         in="SourceAlpha"
         stdDeviation="0.1"
         result="blur" />
      <feColorMatrix
         id="feColorMatrix5249-6"
         result="bluralpha"
         type="matrix"
         values="1 0 0 0 0 0 1 0 0 0 0 0 1 0 0 0 0 0 0.3 0 " />
      <feOffset
         id="feOffset5251-8"
         in="bluralpha"
         dx="0"
         dy="8"
         result="offsetBlur" />
      <feMerge
         id="feMerge5253-3">
        <feMergeNode
           id="feMergeNode5255-7"
           in="offsetBlur" />
        <feMergeNode
           id="feMergeNode5257-7"
           in="SourceGraphic" />
      </feMerge>
    </filter>
    <filter
       color-interpolation-filters="sRGB"
       id="filter5287-4"
       inkscape:label="Drop shadow"
       width="1.5"
       height="1.5"
       x="-0.25"
       y="-0.25">
      <feGaussianBlur
         id="feGaussianBlur5289-1"
         in="SourceAlpha"
         stdDeviation="0.1"
         result="blur" />
      <feColorMatrix
         id="feColorMatrix5291-7"
         result="bluralpha"
         type="matrix"
         values="1 0 0 0 0 0 1 0 0 0 0 0 1 0 0 0 0 0 0.3 0 " />
      <feOffset
         id="feOffset5293-0"
         in="bluralpha"
         dx="0"
         dy="8"
         result="offsetBlur" />
      <feMerge
         id="feMerge5295-9">
        <feMergeNode
           id="feMergeNode5297-1"
           in="offsetBlur" />
        <feMergeNode
           id="feMergeNode5299-3"
           in="SourceGraphic" />
      </feMerge>
    </filter>
    <filter
       color-interpolation-filters="sRGB"
       id="filter5273-6"
       inkscape:label="Drop shadow"
       width="1.5"
       height="1.5"
       x="-0.25"
       y="-0.25">
      <feGaussianBlur
         id="feGaussianBlur5275-0"
         in="SourceAlpha"
         stdDeviation="0.1"
         result="blur" />
      <feColorMatrix
         id="feColorMatrix5277-7"
         result="bluralpha"
         type="matrix"
         values="1 0 0 0 0 0 1 0 0 0 0 0 1 0 0 0 0 0 0.3 0 " />
      <feOffset
         id="feOffset5279-7"
         in="bluralpha"
         dx="0"
         dy="8"
         result="offsetBlur" />
      <feMerge
         id="feMerge5281-0">
        <feMergeNode
           id="feMergeNode5283-7"
           in="offsetBlur" />
        <feMergeNode
           id="feMergeNode5285-8"
           in="SourceGraphic" />
      </feMerge>
    </filter>
    <filter
       color-interpolation-filters="sRGB"
       id="filter5259-2"
       inkscape:label="Drop shadow"
       width="1.5"
       height="1.5"
       x="-0.25"
       y="-0.25">
      <feGaussianBlur
         id="feGaussianBlur5261-7"
         in="SourceAlpha"
         stdDeviation="0.1"
         result="blur" />
      <feColorMatrix
         id="feColorMatrix5263-5"
         result="bluralpha"
         type="matrix"
         values="1 0 0 0 0 0 1 0 0 0 0 0 1 0 0 0 0 0 0.3 0 " />
      <feOffset
         id="feOffset5265-5"
         in="bluralpha"
         dx="0"
         dy="8"
         result="offsetBlur" />
      <feMerge
         id="feMerge5267-9">
        <feMergeNode
           id="feMergeNode5269-5"
           in="offsetBlur" />
        <feMergeNode
           id="feMergeNode5271-3"
           in="SourceGraphic" />
      </feMerge>
    </filter>
    <filter
       color-interpolation-filters="sRGB"
       id="filter5329-6"
       inkscape:label="Drop shadow"
       width="1.5"
       height="1.5"
       x="-0.25"
       y="-0.25">
      <feGaussianBlur
         id="feGaussianBlur5331-0"
         in="SourceAlpha"
         stdDeviation="0.1"
         result="blur" />
      <feColorMatrix
         id="feColorMatrix5333-1"
         result="bluralpha"
         type="matrix"
         values="1 0 0 0 0 0 1 0 0 0 0 0 1 0 0 0 0 0 0.3 0 " />
      <feOffset
         id="feOffset5335-7"
         in="bluralpha"
         dx="0"
         dy="8"
         result="offsetBlur" />
      <feMerge
         id="feMerge5337-6">
        <feMergeNode
           id="feMergeNode5339-4"
           in="offsetBlur" />
        <feMergeNode
           id="feMergeNode5341-8"
           in="SourceGraphic" />
      </feMerge>
    </filter>
    <filter
       color-interpolation-filters="sRGB"
       id="filter5315-3"
       inkscape:label="Drop shadow"
       width="1.5"
       height="1.5"
       x="-0.25"
       y="-0.25">
      <feGaussianBlur
         id="feGaussianBlur5317-4"
         in="SourceAlpha"
         stdDeviation="0.1"
         result="blur" />
      <feColorMatrix
         id="feColorMatrix5319-0"
         result="bluralpha"
         type="matrix"
         values="1 0 0 0 0 0 1 0 0 0 0 0 1 0 0 0 0 0 0.3 0 " />
      <feOffset
         id="feOffset5321-1"
         in="bluralpha"
         dx="0"
         dy="8"
         result="offsetBlur" />
      <feMerge
         id="feMerge5323-3">
        <feMergeNode
           id="feMergeNode5325-4"
           in="offsetBlur" />
        <feMergeNode
           id="feMergeNode5327-1"
           in="SourceGraphic" />
      </feMerge>
    </filter>
    <linearGradient
       inkscape:collect="always"
       xlink:href="#linearGradient4057-5"
       id="linearGradient4023-2"
       x1="337.99704"
       y1="410.30923"
       x2="339.41125"
       y2="780.83319"
       gradientUnits="userSpaceOnUse" />
    <linearGradient
       id="linearGradient4057-5"
       inkscape:collect="always">
      <stop
         id="stop4059-8"
         offset="0"
         style="stop-color:#ffffff;stop-opacity:1;" />
      <stop
         id="stop4061-9"
         offset="1"
         style="stop-color:#d5f6ff;stop-opacity:1" />
    </linearGradient>
    <filter
       color-interpolation-filters="sRGB"
       id="filter5301-9"
       inkscape:label="Drop shadow"
       width="1.5"
       height="1.5"
       x="-0.25"
       y="-0.25">
      <feGaussianBlur
         id="feGaussianBlur5303-2"
         in="SourceAlpha"
         stdDeviation="0.1"
         result="blur" />
      <feColorMatrix
         id="feColorMatrix5305-7"
         result="bluralpha"
         type="matrix"
         values="1 0 0 0 0 0 1 0 0 0 0 0 1 0 0 0 0 0 0.3 0 " />
      <feOffset
         id="feOffset5307-1"
         in="bluralpha"
         dx="0"
         dy="8"
         result="offsetBlur" />
      <feMerge
         id="feMerge5309-9">
        <feMergeNode
           id="feMergeNode5311-9"
           in="offsetBlur" />
        <feMergeNode
           id="feMergeNode5313-7"
           in="SourceGraphic" />
      </feMerge>
    </filter>
  </defs>
  <sodipodi:namedview
     id="base"
     pagecolor="#ffffff"
     bordercolor="#666666"
     borderopacity="1.0"
     inkscape:pageopacity="0.0"
     inkscape:pageshadow="2"
     inkscape:zoom="0.35355339"
     inkscape:cx="332.69399"
     inkscape:cy="872.71759"
     inkscape:document-units="px"
     inkscape:current-layer="layer4"
     showgrid="false"
     showguides="true"
     inkscape:guide-bbox="true"
     inkscape:window-width="1676"
     inkscape:window-height="1006"
     inkscape:window-x="4"
     inkscape:window-y="0"
     inkscape:window-maximized="1">
    <sodipodi:guide
       orientation="1,0"
       position="367.14286,648.57143"
       id="guide5369" />
    <sodipodi:guide
       orientation="1,0"
       position="-134,818"
       id="guide11740" />
    <sodipodi:guide
       orientation="1,0"
       position="866,829"
       id="guide11742" />
  </sodipodi:namedview>
  <metadata
     id="metadata5362">
    <rdf:RDF>
      <cc:Work
         rdf:about="">
        <dc:format>image/svg+xml</dc:format>
        <dc:type
           rdf:resource="http://purl.org/dc/dcmitype/StillImage" />
        <dc:title></dc:title>
      </cc:Work>
    </rdf:RDF>
  </metadata>
  <g
     inkscape:groupmode="layer"
     id="layer4"
     inkscape:label="clouds"
     style="display:inline"
     transform="translate(0,347.63782)">
    <path
       sodipodi:nodetypes="csssscsscssscsc"
       inkscape:connector-curvature="0"
       id="path11726"
       d="m 1335.6242,112.71883 c -11.0309,7.13377 -1.9463,32.75053 0.1403,41.8892 2.0865,9.13849 10.687,48.32686 14.9153,56.20721 4.2282,7.88034 7.4195,12.53608 15.0885,11.16969 6.0055,-1.06998 15.9937,-4.42085 13.9825,-16.26884 -2.0112,-11.84799 -12.7279,-8.63196 -12.7279,-8.63196 0,0 22.1943,-6.79801 23.9263,-16.42386 2.0489,-11.38665 -1.9637,-16.85861 -7.9541,-20.2983 -8.9446,-5.13608 -20.6904,-0.66034 -20.6904,-0.66034 0,0 11.3209,-3.5463 11.8331,-12.70131 0.5257,-9.3963 -1.8265,-11.69783 -5.6274,-13.90683 -3.1508,-1.83119 -9.2575,-3.42769 -12.4296,-2.93095 -2.6802,0.4196 -5.4002,1.42515 -5.4002,1.42515 0,0 7.6392,-9.62833 0.8559,-16.54073 -6.7832,-6.91242 -15.9123,-2.32813 -15.9123,-2.32813 z"
       style="opacity:0.80000000000000004;fill:#ffffff;stroke:none" />
    <path
       style="opacity:0.50199998000000001;fill:#ffffff;stroke:none"
       d="m 340.7708,-188.38662 c 3.72724,3.22032 11.99233,-2.74245 15.06217,-4.45414 3.06983,-1.71168 16.27052,-8.92691 18.66236,-11.27719 2.39183,-2.35028 3.73207,-3.98831 2.43405,-6.60494 -1.01645,-2.04902 -3.27253,-5.29175 -7.32547,-3.32238 -4.05294,1.96938 -1.76881,5.4885 -1.76881,5.4885 0,0 -4.77999,-7.27359 -8.42663,-6.88507 -4.3137,0.45958 -5.86136,2.47906 -6.46966,4.99676 -0.9083,3.75928 1.93742,7.51638 1.93742,7.51638 0,0 -2.4665,-3.70185 -5.81546,-2.92377 -3.43722,0.79856 -4.01832,1.88712 -4.41381,3.48737 -0.32786,1.32655 -0.2605,3.69233 0.25173,4.78184 0.43279,0.92056 1.08068,1.79379 1.08068,1.79379 0,0 -4.26857,-1.73729 -6.04343,1.43085 -1.77483,3.16812 0.83486,5.972 0.83486,5.972 z"
       id="path6820"
       inkscape:connector-curvature="0"
       sodipodi:nodetypes="csssscsscssscsc" />
    <path
       style="opacity:0.49402388000000003;fill:#ffffff;stroke:none"
       d="m 1133.3736,-128.00778 c -5.0194,-1.12529 -8.6707,2.52745 -9.4141,5.11983 -0.7434,2.59242 1.2299,5.82154 3.9672,8.81994 2.7374,2.99837 35.6187,32.68505 36.0642,33.096882 0.4457,0.411877 6.791,4.870735 10.5156,6.204899 3.7245,1.334112 8.0655,-0.978601 8.9891,-3.17012 0.9237,-2.191465 1.2746,-5.849316 -2.6724,-9.028774 -3.9471,-3.179483 -6.0274,-1.822657 -6.9083,-1.465564 -0.8809,0.357092 -2.0484,1.620456 -2.0484,1.620456 0,0 5.8483,-5.1359 1.499,-13.840479 -4.3492,-8.70452 -10.3662,-9.34638 -13.7302,-9.87872 -2.0437,-0.32337 -8.0551,2.15941 -8.0551,2.15941 0,0 2.0174,-5.16286 -1.4841,-7.9305 -3.5015,-2.76764 -7.5135,0.0833 -8.3308,0.96766 -0.8173,0.88432 1.826,-3.46583 -2.0258,-5.85443 -3.8517,-2.38859 -5.7627,1.4671 -5.7627,1.4671 0,0 3.5482,-5.6228 -0.6032,-8.28759 z"
       id="path6822"
       inkscape:connector-curvature="0"
       sodipodi:nodetypes="cssssssscsscssscc" />
    <path
       style="opacity:0.40000000000000002;fill:#ffffff;stroke:none"
       d="m 1269.3705,690.48898 c 5.2331,8.61263 0.3892,14.99797 -1.6228,17.65036 -2.012,2.65231 -9.9154,4.39516 -14.2347,2.20197 -4.3193,-2.1931 -7.2757,-3.81675 -7.2757,-3.81675 0,0 5.5341,4.00944 2.8126,7.85994 -2.7214,3.85041 -9.2528,1.68149 -9.2528,1.68149 0,0 -7.449,-2.34254 -3.2964,-10.06684 3.0158,-5.6097 21.3845,-30.68927 23.6631,-32.2508 3.3229,-2.2771 5.6322,-5.62613 10.8979,-4.41756 8.7409,2.00632 8.2854,12.47588 5.2903,14.84681 -2.9952,2.37092 -7.0918,2.51327 -9.2887,1.4658 -2.1969,-1.04749 2.3072,4.84558 2.3072,4.84558 z"
       id="path6824"
       inkscape:connector-curvature="0"
       sodipodi:nodetypes="csscscsssssc" />
    <path
       style="opacity:0.62948207000000000;fill:#ffffff;stroke:none"
       d="m 1286.5045,13.397181 c -4.3685,5.027717 3.6638,16.225758 5.9669,20.38305 2.3031,4.157292 12.0104,22.033471 15.1795,25.27636 3.1691,3.242882 5.379,5.06113 8.922,3.315709 2.7743,-1.366829 7.1674,-4.405401 4.5194,-9.892958 -2.6478,-5.487484 -7.4148,-2.412043 -7.4148,-2.412043 0,0 9.8529,-6.436384 9.341,-11.368681 -0.6054,-5.834523 -3.3304,-7.934688 -6.7324,-8.76653 -5.0798,-1.242082 -10.1706,2.591876 -10.1706,2.591876 0,0 5.0146,-3.321453 3.975,-7.852656 -1.0671,-4.650657 -2.5369,-5.44042 -4.6992,-5.98111 -1.7925,-0.44826 -4.9917,-0.365935 -6.4667,0.322674 -1.2464,0.581742 -2.4296,1.45454 -2.4296,1.45454 0,0 2.365,-5.765335 -1.9123,-8.176985 -4.2772,-2.4115773 -8.0782,1.106739 -8.0782,1.106739 z"
       id="path11941"
       inkscape:connector-curvature="0"
       sodipodi:nodetypes="csssscsscssscsc" />
    <path
       sodipodi:nodetypes="cssssssscsscssscc"
       inkscape:connector-curvature="0"
       id="path11943"
       d="m 1150.5718,968.51579 c 2.2732,-4.61454 -0.4195,-9.02188 -2.7646,-10.35343 -2.3452,-1.33175 -5.9475,-0.1724 -9.5051,1.7838 -3.5576,1.9563 -40.1388,26.94221 -40.6438,27.27865 -0.505,0.33635 -6.3299,5.45642 -8.5018,8.76319 -2.1719,3.30699 -0.9437,8.0697 0.9693,9.4824 1.9131,1.4129 5.3862,2.6133 9.404,-0.4763 4.0179,-3.0896 3.1877,-5.43041 3.0476,-6.37059 -0.1401,-0.94009 -1.0938,-2.37185 -1.0938,-2.37185 0,0 3.6181,6.89134 13.1009,4.70894 9.4827,-2.18235 11.5203,-7.8801 12.8281,-11.02482 0.7948,-1.91037 -0.2064,-8.33694 -0.2064,-8.33694 0,0 4.5443,3.17387 8.0572,0.42065 3.5128,-2.75317 1.6843,-7.32267 1.0167,-8.32491 -0.6675,-1.00221 2.9397,2.58912 6.1665,-0.59351 3.2267,-3.18275 -0.072,-5.9461 -0.072,-5.9461 0,0 4.634,4.76778 8.1973,1.36082 z"
       style="opacity:0.36653388999999997;fill:#ffffff;stroke:none" />
    <path
       style="opacity:0.62948207000000000;fill:#ffffff;stroke:none"
       d="M 61.5419,56.720326 C 68.01538,58.287228 74.26553,46.005474 76.89809,42.048615 79.53066,38.091745 90.94081,21.251344 92.36316,16.94598 93.78549,12.6406 94.3839,9.8420471 91.20474,7.4985711 c -2.48949,-1.835097 -7.20789,-4.338851 -10.86318,0.535924 -3.65529,4.8747859 1.2678,7.6934989 1.2678,7.6934989 0,0 -10.2463,-5.7895019 -14.3908,-3.066876 -4.90263,3.220653 -5.5145,6.60614 -4.68876,10.009703 1.23297,5.082034 6.97849,7.839562 6.97849,7.839562 0,0 -5.25537,-2.925633 -8.801,0.08125 -3.63906,3.086157 -3.66451,4.754476 -3.15031,6.923253 0.42624,1.797856 1.97047,4.600877 3.26025,5.594111 1.08974,0.839239 2.40887,1.488545 2.40887,1.488545 0,0 -6.20713,0.551141 -6.38176,5.458325 -0.17461,4.90717 4.69754,6.664503 4.69754,6.664503 z"
       id="path11947"
       inkscape:connector-curvature="0"
       sodipodi:nodetypes="csssscsscssscsc" />
    <path
       sodipodi:nodetypes="cssssssscsscssscc"
       inkscape:connector-curvature="0"
       id="path11951"
       d="m 139.06414,832.63772 c 4.69085,2.11097 9.00172,-0.73354 10.25084,-3.12366 1.24918,-2.39015 -0.0349,-5.94994 -2.11391,-9.43724 -2.07901,-3.48728 -28.3241,-39.17582 -28.67787,-39.66882 -0.35379,-0.49302 -5.67358,-6.13596 -9.05412,-8.19136 -3.38054,-2.05539 -8.09761,-0.66211 -9.44284,1.29906 -1.345248,1.96116 -2.424054,5.47386 0.80364,9.38164 3.22767,3.90781 5.53816,2.99668 6.47283,2.82388 0.93467,-0.17281 2.33233,-1.17574 2.33233,-1.17574 0,0 -6.76112,3.8559 -4.24973,13.25688 2.51138,9.40097 8.27666,11.23883 11.46503,12.43628 1.93703,0.72747 8.32473,-0.4967 8.32473,-0.4967 0,0 -3.01369,4.65218 -0.13978,8.06697 2.87391,3.41479 7.37695,1.42821 8.3553,0.72615 0.97836,-0.70206 -2.48518,3.02816 0.80801,6.14206 3.29321,3.11389 5.93999,-0.27918 5.93999,-0.27918 0,0 -4.60352,4.79719 -1.07445,8.23978 z"
       style="opacity:0.68127488999999997;fill:#ffffff;stroke:none" />
    <path
       sodipodi:nodetypes="csscscsssssc"
       inkscape:connector-curvature="0"
       id="path11953"
       d="m 62.864816,-246.78534 c -6.284042,-7.8787 -2.289998,-14.82724 -0.630915,-17.71356 1.659063,-2.88632 9.277269,-5.61837 13.839996,-3.99124 4.562726,1.62712 7.70133,2.86232 7.70133,2.86232 0,0 -5.998259,-3.27453 -3.787612,-7.43928 2.210656,-4.16476 8.964573,-2.84255 8.964573,-2.84255 0,0 7.686049,1.37799 4.547602,9.56693 -2.279263,5.94718 -17.315702,33.15569 -19.37763,34.99383 -3.006875,2.68047 -4.872458,6.29558 -10.248854,5.76519 -8.924899,-0.88048 -9.802184,-11.32314 -7.132263,-14.05509 2.66992,-2.73192 6.715378,-3.39321 9.027457,-2.6331 2.312098,0.76011 -2.903664,-4.51345 -2.903664,-4.51345 z"
       style="opacity:0.40000000000000002;fill:#ffffff;stroke:none" />
    <path
       style="opacity:0.80000000000000004;fill:#ffffff;stroke:none"
       d="m 186.69486,-209.40262 c 10.75388,7.54487 31.08474,-10.4943 38.77102,-15.85972 7.6863,-5.36542 40.77729,-28.05203 46.49322,-34.92999 5.71594,-6.87796 8.83264,-11.58394 4.68645,-18.17868 -3.24678,-5.16415 -10.10307,-13.16312 -20.32881,-6.85017 -10.22573,6.31295 -3.22083,15.03776 -3.22083,15.03776 0,0 -14.63473,-18.01736 -24.20652,-16.00807 -11.32268,2.37683 -14.88742,8.15058 -15.82602,14.99421 -1.40147,10.21863 7.15737,19.42423 7.15737,19.42423 0,0 -7.53782,-9.16074 -16.21521,-6.19772 -8.9061,3.04113 -10.15592,6.08543 -10.77599,10.43763 -0.514,3.60784 0.29941,9.86717 1.95089,12.62065 1.39533,2.32644 3.34872,4.46973 3.34872,4.46973 0,0 -11.79233,-3.4645 -15.65173,5.41802 -3.8594,8.88249 3.81744,15.62212 3.81744,15.62212 z"
       id="path11955"
       inkscape:connector-curvature="0"
       sodipodi:nodetypes="csssscsscssscsc" />
    <path
       style="opacity:0.62948207000000000;fill:#ffffff;stroke:none"
       d="m 1194.4096,806.95526 c -5.4982,-3.75899 -15.6947,5.51131 -19.5585,8.27867 -3.8638,2.76736 -20.5007,14.4722 -23.3562,17.99427 -2.8556,3.52207 -4.4068,5.92703 -2.2641,9.24497 1.6777,2.59814 5.2029,6.61135 10.3483,3.34799 5.1454,-3.26334 1.5405,-7.64357 1.5405,-7.64357 0,0 7.5301,9.04445 12.3704,7.96697 5.7257,-1.27455 7.4975,-4.22357 7.9313,-7.6989 0.6477,-5.1892 -3.7479,-9.80362 -3.7479,-9.80362 0,0 3.8777,4.59794 8.2587,3.04246 4.4966,-1.59648 5.1114,-3.14756 5.3991,-5.35781 0.2384,-1.83226 -0.2124,-5.00058 -1.0666,-6.38639 -0.7217,-1.17091 -1.7252,-2.2455 -1.7252,-2.2455 0,0 5.9997,1.68399 7.9018,-2.84294 1.9021,-4.52692 -2.0314,-7.8966 -2.0314,-7.8966 z"
       id="path11957"
       inkscape:connector-curvature="0"
       sodipodi:nodetypes="csssscsscssscsc" />
    <path
       sodipodi:nodetypes="csssscsscssscsc"
       inkscape:connector-curvature="0"
       id="path11963"
       d="m 957.68955,976.64713 c -4.70465,-4.71461 -16.44516,2.50101 -20.75565,4.50274 -4.31048,2.00174 -22.83158,10.4136 -26.29153,13.34414 -3.45996,2.93058 -5.43076,5.00567 -3.94159,8.66369 1.16611,2.8645 3.88467,7.4625 9.54659,5.2114 5.66191,-2.2512 2.93306,-7.2246 2.93306,-7.2246 0,0 5.71965,10.2855 10.67587,10.1256 5.86281,-0.1891 8.1514,-2.758 9.223,-6.0922 1.60008,-4.9787 -1.86227,-10.32912 -1.86227,-10.32912 0,0 2.95651,5.23802 7.55017,4.52316 4.71473,-0.73374 5.607,-2.14363 6.30006,-4.26205 0.57453,-1.7561 0.71987,-4.95304 0.13789,-6.47336 -0.49168,-1.28457 -1.27816,-2.52679 -1.27816,-2.52679 0,0 5.58265,2.7688 8.29225,-1.32619 2.70959,-4.09498 -0.52964,-8.13645 -0.52964,-8.13645 z"
       style="opacity:0.62948207000000000;fill:#ffffff;stroke:none" />
    <path
       style="opacity:0.36653388999999997;fill:#ffffff;stroke:none"
       d="m 1347.1206,493.16958 c -1.5464,-4.90599 -6.5385,-6.23033 -9.1537,-5.57187 -2.6153,0.65835 -4.4176,3.98593 -5.6367,7.85853 -1.2192,3.87267 -10.3886,47.21316 -10.521,47.80529 -0.1328,0.59216 -0.8037,8.31828 -0.088,12.20931 0.7159,3.89113 4.8952,6.48444 7.2542,6.18331 2.359,-0.30122 5.6987,-1.83393 6.4672,-6.8438 0.7685,-5.00972 -1.4492,-6.12779 -2.2003,-6.71046 -0.751,-0.5825 -2.4297,-0.9582 -2.4297,-0.9582 0,0 7.3776,2.47995 12.7228,-5.65117 5.3451,-8.13112 2.8797,-13.6573 1.6514,-16.83393 -0.7462,-1.92984 -5.9111,-5.88267 -5.9111,-5.88267 0,0 5.478,-0.84689 6.1139,-5.26454 0.6359,-4.41765 -3.8436,-6.45643 -5.0188,-6.71938 -1.1752,-0.2629 3.9141,-0.16053 4.0464,-4.69082 0.1324,-4.53037 -4.1616,-4.2476 -4.1616,-4.2476 0,0 6.6442,0.24311 6.8649,-4.682 z"
       id="path11965"
       inkscape:connector-curvature="0"
       sodipodi:nodetypes="cssssssscsscssscc" />
    <path
       style="opacity:0.80000000000000004;fill:#ffffff;stroke:none"
       d="m 525.15024,999.86977 c 0.93766,-13.10317 -24.99041,-21.25732 -33.54554,-25.08831 -8.55515,-3.83101 -45.03286,-20.53645 -53.87138,-21.8997 -8.83856,-1.36325 -14.47741,-1.61496 -17.99959,5.33311 -2.75812,5.44086 -6.0903,15.4353 4.58377,20.95649 10.67405,5.52118 14.55219,-4.9741 14.55219,-4.9741 0,0 -7.92163,21.81851 -1.2745,28.99294 7.86305,8.4868 14.64803,8.5734 20.99949,5.8576 9.48371,-4.0551 12.97471,-16.13029 12.97471,-16.13029 0,0 -3.9778,11.17649 3.02707,17.09329 7.18951,6.0727 10.44304,5.5784 14.49415,3.8712 3.35826,-1.4153 8.30732,-5.3329 9.81893,-8.1655 1.27716,-2.3934 2.11018,-5.1711 2.11018,-5.1711 0,0 3.09558,11.8946 12.69799,10.6346 9.6024,-1.26 11.43253,-11.31023 11.43253,-11.31023 z"
       id="path11967"
       inkscape:connector-curvature="0"
       sodipodi:nodetypes="csssscsscssscsc" />
    <path
       sodipodi:nodetypes="csssscsscssscsc"
       inkscape:connector-curvature="0"
       id="path11971"
       d="m 141.66499,689.84368 c 3.93682,-2.96046 -0.13973,-12.30112 -1.16225,-15.6639 -1.0225,-3.36277 -5.27752,-17.79233 -7.06777,-20.62778 -1.79024,-2.83543 -3.10718,-4.49225 -5.9394,-3.77802 -2.21783,0.55933 -5.8649,2.07725 -4.79882,6.4554 1.06611,4.37815 4.98923,2.89136 4.98923,2.89136 0,0 -8.12113,3.13064 -8.51393,6.77684 -0.46466,4.31315 1.18113,6.2535 3.51282,7.38134 3.48154,1.68406 7.75622,-0.30116 7.75622,-0.30116 0,0 -4.14033,1.62633 -4.08938,5.06409 0.0523,3.52839 0.99305,4.32689 2.47319,5.05241 1.22699,0.60144 3.55334,1.03679 4.72665,0.76698 0.99134,-0.22797 1.98199,-0.67619 1.98199,-0.67619 0,0 -2.60212,3.80365 0.11812,6.20938 2.72024,2.40568 6.01332,0.44921 6.01332,0.44921 z"
       style="opacity:0.50199998000000001;fill:#ffffff;stroke:none" />
    <path
       sodipodi:type="arc"
       style="fill:#ffdd55;fill-opacity:1;stroke:none"
       id="path174711"
       sodipodi:cx="1290"
       sodipodi:cy="76"
       sodipodi:rx="46"
       sodipodi:ry="46"
       d="m 1336,76 a 46,46 0 1 1 -92,0 46,46 0 1 1 92,0 z"
       transform="matrix(0.78479359,0,0,0.78479359,319.51577,-349.18163)" />
  </g>
</svg>
