<?xml version="1.0" encoding="UTF-8" standalone="no"?>
<!-- Created with Inkscape (http://www.inkscape.org/) -->

<svg
   xmlns:dc="http://purl.org/dc/elements/1.1/"
   xmlns:cc="http://creativecommons.org/ns#"
   xmlns:rdf="http://www.w3.org/1999/02/22-rdf-syntax-ns#"
   xmlns:svg="http://www.w3.org/2000/svg"
   xmlns="http://www.w3.org/2000/svg"
   xmlns:xlink="http://www.w3.org/1999/xlink"
   xmlns:sodipodi="http://sodipodi.sourceforge.net/DTD/sodipodi-0.dtd"
   xmlns:inkscape="http://www.inkscape.org/namespaces/inkscape"
   width="1400"
   height="1400"
   id="svg5357"
   version="1.1"
   inkscape:version="0.48.2 r9819"
   sodipodi:docname="cloud.svg">
  <defs
     id="defs5359">
    <linearGradient
       id="linearGradient6849">
      <stop
         style="stop-color:#6a7346;stop-opacity:1;"
         offset="0"
         id="stop6851" />
      <stop
         style="stop-color:#abc837;stop-opacity:1"
         offset="1"
         id="stop6853" />
    </linearGradient>
    <linearGradient
       id="linearGradient6837">
      <stop
         style="stop-color:#668000;stop-opacity:1"
         offset="0"
         id="stop6839" />
      <stop
         id="stop6845"
         offset="0.5"
         style="stop-color:#668000;stop-opacity:1" />
      <stop
         style="stop-color:#97af36;stop-opacity:1;"
         offset="0.7884286"
         id="stop6847" />
      <stop
         style="stop-color:#bcd35f;stop-opacity:1"
         offset="1"
         id="stop6841" />
    </linearGradient>
    <filter
       color-interpolation-filters="sRGB"
       id="filter5245"
       inkscape:label="Drop shadow"
       width="1.5"
       height="1.5"
       x="-0.25"
       y="-0.25">
      <feGaussianBlur
         id="feGaussianBlur5247"
         in="SourceAlpha"
         stdDeviation="0.1"
         result="blur" />
      <feColorMatrix
         id="feColorMatrix5249"
         result="bluralpha"
         type="matrix"
         values="1 0 0 0 0 0 1 0 0 0 0 0 1 0 0 0 0 0 0.3 0 " />
      <feOffset
         id="feOffset5251"
         in="bluralpha"
         dx="0"
         dy="8"
         result="offsetBlur" />
      <feMerge
         id="feMerge5253">
        <feMergeNode
           id="feMergeNode5255"
           in="offsetBlur" />
        <feMergeNode
           id="feMergeNode5257"
           in="SourceGraphic" />
      </feMerge>
    </filter>
    <filter
       color-interpolation-filters="sRGB"
       id="filter5287"
       inkscape:label="Drop shadow"
       width="1.5"
       height="1.5"
       x="-0.25"
       y="-0.25">
      <feGaussianBlur
         id="feGaussianBlur5289"
         in="SourceAlpha"
         stdDeviation="0.1"
         result="blur" />
      <feColorMatrix
         id="feColorMatrix5291"
         result="bluralpha"
         type="matrix"
         values="1 0 0 0 0 0 1 0 0 0 0 0 1 0 0 0 0 0 0.3 0 " />
      <feOffset
         id="feOffset5293"
         in="bluralpha"
         dx="0"
         dy="8"
         result="offsetBlur" />
      <feMerge
         id="feMerge5295">
        <feMergeNode
           id="feMergeNode5297"
           in="offsetBlur" />
        <feMergeNode
           id="feMergeNode5299"
           in="SourceGraphic" />
      </feMerge>
    </filter>
    <filter
       color-interpolation-filters="sRGB"
       id="filter5273"
       inkscape:label="Drop shadow"
       width="1.5"
       height="1.5"
       x="-0.25"
       y="-0.25">
      <feGaussianBlur
         id="feGaussianBlur5275"
         in="SourceAlpha"
         stdDeviation="0.1"
         result="blur" />
      <feColorMatrix
         id="feColorMatrix5277"
         result="bluralpha"
         type="matrix"
         values="1 0 0 0 0 0 1 0 0 0 0 0 1 0 0 0 0 0 0.3 0 " />
      <feOffset
         id="feOffset5279"
         in="bluralpha"
         dx="0"
         dy="8"
         result="offsetBlur" />
      <feMerge
         id="feMerge5281">
        <feMergeNode
           id="feMergeNode5283"
           in="offsetBlur" />
        <feMergeNode
           id="feMergeNode5285"
           in="SourceGraphic" />
      </feMerge>
    </filter>
    <filter
       color-interpolation-filters="sRGB"
       id="filter5259"
       inkscape:label="Drop shadow"
       width="1.5"
       height="1.5"
       x="-0.25"
       y="-0.25">
      <feGaussianBlur
         id="feGaussianBlur5261"
         in="SourceAlpha"
         stdDeviation="0.1"
         result="blur" />
      <feColorMatrix
         id="feColorMatrix5263"
         result="bluralpha"
         type="matrix"
         values="1 0 0 0 0 0 1 0 0 0 0 0 1 0 0 0 0 0 0.3 0 " />
      <feOffset
         id="feOffset5265"
         in="bluralpha"
         dx="0"
         dy="8"
         result="offsetBlur" />
      <feMerge
         id="feMerge5267">
        <feMergeNode
           id="feMergeNode5269"
           in="offsetBlur" />
        <feMergeNode
           id="feMergeNode5271"
           in="SourceGraphic" />
      </feMerge>
    </filter>
    <filter
       color-interpolation-filters="sRGB"
       id="filter5329"
       inkscape:label="Drop shadow"
       width="1.5"
       height="1.5"
       x="-0.25"
       y="-0.25">
      <feGaussianBlur
         id="feGaussianBlur5331"
         in="SourceAlpha"
         stdDeviation="0.1"
         result="blur" />
      <feColorMatrix
         id="feColorMatrix5333"
         result="bluralpha"
         type="matrix"
         values="1 0 0 0 0 0 1 0 0 0 0 0 1 0 0 0 0 0 0.3 0 " />
      <feOffset
         id="feOffset5335"
         in="bluralpha"
         dx="0"
         dy="8"
         result="offsetBlur" />
      <feMerge
         id="feMerge5337">
        <feMergeNode
           id="feMergeNode5339"
           in="offsetBlur" />
        <feMergeNode
           id="feMergeNode5341"
           in="SourceGraphic" />
      </feMerge>
    </filter>
    <filter
       color-interpolation-filters="sRGB"
       id="filter5315"
       inkscape:label="Drop shadow"
       width="1.5"
       height="1.5"
       x="-0.25"
       y="-0.25">
      <feGaussianBlur
         id="feGaussianBlur5317"
         in="SourceAlpha"
         stdDeviation="0.1"
         result="blur" />
      <feColorMatrix
         id="feColorMatrix5319"
         result="bluralpha"
         type="matrix"
         values="1 0 0 0 0 0 1 0 0 0 0 0 1 0 0 0 0 0 0.3 0 " />
      <feOffset
         id="feOffset5321"
         in="bluralpha"
         dx="0"
         dy="8"
         result="offsetBlur" />
      <feMerge
         id="feMerge5323">
        <feMergeNode
           id="feMergeNode5325"
           in="offsetBlur" />
        <feMergeNode
           id="feMergeNode5327"
           in="SourceGraphic" />
      </feMerge>
    </filter>
    <linearGradient
       inkscape:collect="always"
       xlink:href="#linearGradient4057"
       id="linearGradient4023"
       x1="337.99704"
       y1="410.30923"
       x2="339.41125"
       y2="780.83319"
       gradientUnits="userSpaceOnUse" />
    <linearGradient
       id="linearGradient4057"
       inkscape:collect="always">
      <stop
         id="stop4059"
         offset="0"
         style="stop-color:#ffffff;stop-opacity:1;" />
      <stop
         id="stop4061"
         offset="1"
         style="stop-color:#d5f6ff;stop-opacity:1" />
    </linearGradient>
    <filter
       color-interpolation-filters="sRGB"
       id="filter5301"
       inkscape:label="Drop shadow"
       width="1.5"
       height="1.5"
       x="-0.25"
       y="-0.25">
      <feGaussianBlur
         id="feGaussianBlur5303"
         in="SourceAlpha"
         stdDeviation="0.1"
         result="blur" />
      <feColorMatrix
         id="feColorMatrix5305"
         result="bluralpha"
         type="matrix"
         values="1 0 0 0 0 0 1 0 0 0 0 0 1 0 0 0 0 0 0.3 0 " />
      <feOffset
         id="feOffset5307"
         in="bluralpha"
         dx="0"
         dy="8"
         result="offsetBlur" />
      <feMerge
         id="feMerge5309">
        <feMergeNode
           id="feMergeNode5311"
           in="offsetBlur" />
        <feMergeNode
           id="feMergeNode5313"
           in="SourceGraphic" />
      </feMerge>
    </filter>
    <filter
       color-interpolation-filters="sRGB"
       id="filter5245-0"
       inkscape:label="Drop shadow"
       width="1.5"
       height="1.5"
       x="-0.25"
       y="-0.25">
      <feGaussianBlur
         id="feGaussianBlur5247-1"
         in="SourceAlpha"
         stdDeviation="0.1"
         result="blur" />
      <feColorMatrix
         id="feColorMatrix5249-6"
         result="bluralpha"
         type="matrix"
         values="1 0 0 0 0 0 1 0 0 0 0 0 1 0 0 0 0 0 0.3 0 " />
      <feOffset
         id="feOffset5251-8"
         in="bluralpha"
         dx="0"
         dy="8"
         result="offsetBlur" />
      <feMerge
         id="feMerge5253-3">
        <feMergeNode
           id="feMergeNode5255-7"
           in="offsetBlur" />
        <feMergeNode
           id="feMergeNode5257-7"
           in="SourceGraphic" />
      </feMerge>
    </filter>
    <filter
       color-interpolation-filters="sRGB"
       id="filter5287-4"
       inkscape:label="Drop shadow"
       width="1.5"
       height="1.5"
       x="-0.25"
       y="-0.25">
      <feGaussianBlur
         id="feGaussianBlur5289-1"
         in="SourceAlpha"
         stdDeviation="0.1"
         result="blur" />
      <feColorMatrix
         id="feColorMatrix5291-7"
         result="bluralpha"
         type="matrix"
         values="1 0 0 0 0 0 1 0 0 0 0 0 1 0 0 0 0 0 0.3 0 " />
      <feOffset
         id="feOffset5293-0"
         in="bluralpha"
         dx="0"
         dy="8"
         result="offsetBlur" />
      <feMerge
         id="feMerge5295-9">
        <feMergeNode
           id="feMergeNode5297-1"
           in="offsetBlur" />
        <feMergeNode
           id="feMergeNode5299-3"
           in="SourceGraphic" />
      </feMerge>
    </filter>
    <filter
       color-interpolation-filters="sRGB"
       id="filter5273-6"
       inkscape:label="Drop shadow"
       width="1.5"
       height="1.5"
       x="-0.25"
       y="-0.25">
      <feGaussianBlur
         id="feGaussianBlur5275-0"
         in="SourceAlpha"
         stdDeviation="0.1"
         result="blur" />
      <feColorMatrix
         id="feColorMatrix5277-7"
         result="bluralpha"
         type="matrix"
         values="1 0 0 0 0 0 1 0 0 0 0 0 1 0 0 0 0 0 0.3 0 " />
      <feOffset
         id="feOffset5279-7"
         in="bluralpha"
         dx="0"
         dy="8"
         result="offsetBlur" />
      <feMerge
         id="feMerge5281-0">
        <feMergeNode
           id="feMergeNode5283-7"
           in="offsetBlur" />
        <feMergeNode
           id="feMergeNode5285-8"
           in="SourceGraphic" />
      </feMerge>
    </filter>
    <filter
       color-interpolation-filters="sRGB"
       id="filter5259-2"
       inkscape:label="Drop shadow"
       width="1.5"
       height="1.5"
       x="-0.25"
       y="-0.25">
      <feGaussianBlur
         id="feGaussianBlur5261-7"
         in="SourceAlpha"
         stdDeviation="0.1"
         result="blur" />
      <feColorMatrix
         id="feColorMatrix5263-5"
         result="bluralpha"
         type="matrix"
         values="1 0 0 0 0 0 1 0 0 0 0 0 1 0 0 0 0 0 0.3 0 " />
      <feOffset
         id="feOffset5265-5"
         in="bluralpha"
         dx="0"
         dy="8"
         result="offsetBlur" />
      <feMerge
         id="feMerge5267-9">
        <feMergeNode
           id="feMergeNode5269-5"
           in="offsetBlur" />
        <feMergeNode
           id="feMergeNode5271-3"
           in="SourceGraphic" />
      </feMerge>
    </filter>
    <filter
       color-interpolation-filters="sRGB"
       id="filter5329-6"
       inkscape:label="Drop shadow"
       width="1.5"
       height="1.5"
       x="-0.25"
       y="-0.25">
      <feGaussianBlur
         id="feGaussianBlur5331-0"
         in="SourceAlpha"
         stdDeviation="0.1"
         result="blur" />
      <feColorMatrix
         id="feColorMatrix5333-1"
         result="bluralpha"
         type="matrix"
         values="1 0 0 0 0 0 1 0 0 0 0 0 1 0 0 0 0 0 0.3 0 " />
      <feOffset
         id="feOffset5335-7"
         in="bluralpha"
         dx="0"
         dy="8"
         result="offsetBlur" />
      <feMerge
         id="feMerge5337-6">
        <feMergeNode
           id="feMergeNode5339-4"
           in="offsetBlur" />
        <feMergeNode
           id="feMergeNode5341-8"
           in="SourceGraphic" />
      </feMerge>
    </filter>
    <filter
       color-interpolation-filters="sRGB"
       id="filter5315-3"
       inkscape:label="Drop shadow"
       width="1.5"
       height="1.5"
       x="-0.25"
       y="-0.25">
      <feGaussianBlur
         id="feGaussianBlur5317-4"
         in="SourceAlpha"
         stdDeviation="0.1"
         result="blur" />
      <feColorMatrix
         id="feColorMatrix5319-0"
         result="bluralpha"
         type="matrix"
         values="1 0 0 0 0 0 1 0 0 0 0 0 1 0 0 0 0 0 0.3 0 " />
      <feOffset
         id="feOffset5321-1"
         in="bluralpha"
         dx="0"
         dy="8"
         result="offsetBlur" />
      <feMerge
         id="feMerge5323-3">
        <feMergeNode
           id="feMergeNode5325-4"
           in="offsetBlur" />
        <feMergeNode
           id="feMergeNode5327-1"
           in="SourceGraphic" />
      </feMerge>
    </filter>
    <linearGradient
       inkscape:collect="always"
       xlink:href="#linearGradient4057-5"
       id="linearGradient4023-2"
       x1="337.99704"
       y1="410.30923"
       x2="339.41125"
       y2="780.83319"
       gradientUnits="userSpaceOnUse" />
    <linearGradient
       id="linearGradient4057-5"
       inkscape:collect="always">
      <stop
         id="stop4059-8"
         offset="0"
         style="stop-color:#ffffff;stop-opacity:1;" />
      <stop
         id="stop4061-9"
         offset="1"
         style="stop-color:#d5f6ff;stop-opacity:1" />
    </linearGradient>
    <filter
       color-interpolation-filters="sRGB"
       id="filter5301-9"
       inkscape:label="Drop shadow"
       width="1.5"
       height="1.5"
       x="-0.25"
       y="-0.25">
      <feGaussianBlur
         id="feGaussianBlur5303-2"
         in="SourceAlpha"
         stdDeviation="0.1"
         result="blur" />
      <feColorMatrix
         id="feColorMatrix5305-7"
         result="bluralpha"
         type="matrix"
         values="1 0 0 0 0 0 1 0 0 0 0 0 1 0 0 0 0 0 0.3 0 " />
      <feOffset
         id="feOffset5307-1"
         in="bluralpha"
         dx="0"
         dy="8"
         result="offsetBlur" />
      <feMerge
         id="feMerge5309-9">
        <feMergeNode
           id="feMergeNode5311-9"
           in="offsetBlur" />
        <feMergeNode
           id="feMergeNode5313-7"
           in="SourceGraphic" />
      </feMerge>
    </filter>
  </defs>
  <sodipodi:namedview
     id="base"
     pagecolor="#ffffff"
     bordercolor="#666666"
     borderopacity="1.0"
     inkscape:pageopacity="0.0"
     inkscape:pageshadow="2"
     inkscape:zoom="0.5"
     inkscape:cx="440.79137"
     inkscape:cy="655.22436"
     inkscape:document-units="px"
     inkscape:current-layer="layer4"
     showgrid="false"
     showguides="true"
     inkscape:guide-bbox="true"
     inkscape:window-width="1676"
     inkscape:window-height="1006"
     inkscape:window-x="4"
     inkscape:window-y="0"
     inkscape:window-maximized="1">
    <sodipodi:guide
       orientation="1,0"
       position="367.14286,648.57143"
       id="guide5369" />
    <sodipodi:guide
       orientation="1,0"
       position="-134,818"
       id="guide11740" />
    <sodipodi:guide
       orientation="1,0"
       position="866,829"
       id="guide11742" />
  </sodipodi:namedview>
  <metadata
     id="metadata5362">
    <rdf:RDF>
      <cc:Work
         rdf:about="">
        <dc:format>image/svg+xml</dc:format>
        <dc:type
           rdf:resource="http://purl.org/dc/dcmitype/StillImage" />
        <dc:title />
      </cc:Work>
    </rdf:RDF>
  </metadata>
  <g
     inkscape:groupmode="layer"
     id="layer4"
     inkscape:label="clouds"
     style="display:inline"
     transform="translate(0,347.63782)">
    <path
       sodipodi:nodetypes="csssscsscssscsc"
       inkscape:connector-curvature="0"
       id="path11726"
       d="m 1179.3005,-236.28645 c -4.8095,12.22456 17.4982,27.75245 24.5182,33.96444 7.0198,6.21191 36.8407,33.05239 44.8683,36.99394 8.0276,3.94154 13.3337,5.8664 18.7708,0.28796 4.2577,-4.36836 10.4236,-12.91084 1.8865,-21.36883 -8.5371,-8.45799 -15.3737,0.39935 -15.3737,0.39935 0,0 14.0784,-18.45536 9.8782,-27.28798 -4.9685,-10.44832 -11.4177,-12.55807 -18.2904,-11.86382 -10.2621,1.03657 -17.2012,11.51728 -17.2012,11.51728 0,0 7.1352,-9.47772 2.2179,-17.21702 -5.0469,-7.94327 -8.2995,-8.44354 -12.6757,-8.02458 -3.6277,0.34729 -9.5211,2.60738 -11.8099,4.85915 -1.9339,1.90247 -3.5588,4.30438 -3.5588,4.30438 0,0 0.5995,-12.27606 -8.9408,-13.94239 -9.5403,-1.66635 -14.2894,7.37812 -14.2894,7.37812 z"
       style="opacity:0.80000000000000004;fill:#ffffff;stroke:none" />
    <path
       sodipodi:nodetypes="csssscsscssscsc"
       inkscape:connector-curvature="0"
       id="path11736"
       d="m 1211.2206,-138.55711 c -4.1204,8.02341 10.0601,20.15512 14.4319,24.87836 4.3719,4.72324 22.9131,25.096461 28.1284,28.337442 5.2153,3.240914 8.709,4.918228 12.8045,1.478238 3.2071,-2.693777 8.0028,-8.10909 2.7477,-14.470364 -5.255,-6.361336 -10.5305,-0.776718 -10.5305,-0.776718 0,0 10.8783,-11.647548 8.6118,-17.968748 -2.6811,-7.47746 -6.9432,-9.35912 -11.686,-9.35406 -7.0819,0.008 -12.5381,6.69423 -12.5381,6.69423 0,0 5.5217,-5.98797 2.6906,-11.61119 -2.9057,-5.77141 -5.0937,-6.3352 -8.1121,-6.34776 -2.5021,-0.0104 -6.6828,1.13136 -8.4003,2.51348 -1.4511,1.16772 -2.7251,2.6978 -2.7251,2.6978 0,0 1.2476,-8.34609 -5.1566,-10.13585 -6.4041,-1.78976 -10.2662,4.06514 -10.2662,4.06514 z"
       style="opacity:0.69999999999999996;fill:#ffffff;stroke:none" />
    <path
       sodipodi:nodetypes="csssscsscssscsc"
       inkscape:connector-curvature="0"
       id="path11738"
       d="m 1029.7996,-220.70363 c -1.3023,6.53184 11.2236,12.2772 15.2843,14.7466 4.0606,2.46939 21.3513,13.18503 25.711,14.43105 4.3597,1.246 7.1802,1.73006 9.3925,-1.54179 1.7323,-2.56209 4.042,-7.37844 -0.9775,-10.83239 -5.0194,-3.45397 -7.6355,1.57974 -7.6355,1.57974 0,0 5.3679,-10.47335 2.4788,-14.50368 -3.4173,-4.76753 -6.8249,-5.24118 -10.1921,-4.27766 -5.0276,1.43872 -7.5492,7.29164 -7.5492,7.29164 0,0 2.7095,-5.37003 -0.4392,-8.79039 -3.2317,-3.51054 -4.8996,-3.46808 -7.0457,-2.86606 -1.779,0.49903 -4.5169,2.15599 -5.4568,3.48512 -0.7942,1.123 -1.3893,2.46743 -1.3893,2.46743 0,0 -0.8032,-6.17955 -5.7135,-6.15441 -4.9101,0.0252 -6.4679,4.96476 -6.4679,4.96476 z"
       style="opacity:0.62948207000000000;fill:#ffffff;stroke:none" />
    <path
       style="opacity:0.50199998000000001;fill:#ffffff;stroke:none"
       d="m 340.7708,-188.38662 c 3.72724,3.22032 11.99233,-2.74245 15.06217,-4.45414 3.06983,-1.71168 16.27052,-8.92691 18.66236,-11.27719 2.39183,-2.35028 3.73207,-3.98831 2.43405,-6.60494 -1.01645,-2.04902 -3.27253,-5.29175 -7.32547,-3.32238 -4.05294,1.96938 -1.76881,5.4885 -1.76881,5.4885 0,0 -4.77999,-7.27359 -8.42663,-6.88507 -4.3137,0.45958 -5.86136,2.47906 -6.46966,4.99676 -0.9083,3.75928 1.93742,7.51638 1.93742,7.51638 0,0 -2.4665,-3.70185 -5.81546,-2.92377 -3.43722,0.79856 -4.01832,1.88712 -4.41381,3.48737 -0.32786,1.32655 -0.2605,3.69233 0.25173,4.78184 0.43279,0.92056 1.08068,1.79379 1.08068,1.79379 0,0 -4.26857,-1.73729 -6.04343,1.43085 -1.77483,3.16812 0.83486,5.972 0.83486,5.972 z"
       id="path6820"
       inkscape:connector-curvature="0"
       sodipodi:nodetypes="csssscsscssscsc" />
    <path
       style="opacity:0.49402390000000002;fill:#ffffff;stroke:none"
       d="m 834.46298,-240.74215 c -4.84538,1.72699 -5.98398,6.76468 -5.22918,9.35375 0.75478,2.58912 4.14682,4.26695 8.06191,5.34188 3.9151,1.07489 47.56537,8.63335 48.16203,8.74385 0.59667,0.11049 8.34233,0.49511 12.20421,-0.36428 3.86188,-0.85939 6.29873,-5.13183 5.91038,-7.47811 -0.38833,-2.34628 -2.04359,-5.62698 -7.07842,-6.20943 -5.03483,-0.58248 -6.07003,1.67515 -6.62442,2.44724 -0.55439,0.77209 -0.86763,2.4636 -0.86763,2.4636 0,0 2.20512,-7.46446 -6.11833,-12.50484 -8.32345,-5.04039 -13.75454,-2.37216 -16.88353,-1.02713 -1.90093,0.81715 -5.65979,6.12491 -5.65979,6.12491 0,0 -1.04915,-5.44283 -5.48732,-5.9148 -4.43817,-0.47197 -6.30967,4.0801 -6.52894,5.26416 -0.21926,1.18405 -0.30532,-3.90547 -4.83745,-3.86999 -4.53214,0.0355 -4.09058,4.31608 -4.09058,4.31608 0,0 -0.003,-6.64871 -4.93294,-6.68689 z"
       id="path6822"
       inkscape:connector-curvature="0"
       sodipodi:nodetypes="cssssssscsscssscc" />
    <path
       style="opacity:0.40000000000000002;fill:#ffffff;stroke:none"
       d="m 1269.3705,690.48898 c 5.2331,8.61263 0.3892,14.99797 -1.6228,17.65036 -2.012,2.65231 -9.9154,4.39516 -14.2347,2.20197 -4.3193,-2.1931 -7.2757,-3.81675 -7.2757,-3.81675 0,0 5.5341,4.00944 2.8126,7.85994 -2.7214,3.85041 -9.2528,1.68149 -9.2528,1.68149 0,0 -7.449,-2.34254 -3.2964,-10.06684 3.0158,-5.6097 21.3845,-30.68927 23.6631,-32.2508 3.3229,-2.2771 5.6322,-5.62613 10.8979,-4.41756 8.7409,2.00632 8.2854,12.47588 5.2903,14.84681 -2.9952,2.37092 -7.0918,2.51327 -9.2887,1.4658 -2.1969,-1.04749 2.3072,4.84558 2.3072,4.84558 z"
       id="path6824"
       inkscape:connector-curvature="0"
       sodipodi:nodetypes="csscscsssssc" />
    <path
       style="opacity:0.62948207000000000;fill:#ffffff;stroke:none"
       d="m 1286.5045,13.397181 c -4.3685,5.027717 3.6638,16.225758 5.9669,20.38305 2.3031,4.157292 12.0104,22.033471 15.1795,25.27636 3.1691,3.242882 5.379,5.06113 8.922,3.315709 2.7743,-1.366829 7.1674,-4.405401 4.5194,-9.892958 -2.6478,-5.487484 -7.4148,-2.412043 -7.4148,-2.412043 0,0 9.8529,-6.436384 9.341,-11.368681 -0.6054,-5.834523 -3.3304,-7.934688 -6.7324,-8.76653 -5.0798,-1.242082 -10.1706,2.591876 -10.1706,2.591876 0,0 5.0146,-3.321453 3.975,-7.852656 -1.0671,-4.650657 -2.5369,-5.44042 -4.6992,-5.98111 -1.7925,-0.44826 -4.9917,-0.365935 -6.4667,0.322674 -1.2464,0.581742 -2.4296,1.45454 -2.4296,1.45454 0,0 2.365,-5.765335 -1.9123,-8.176985 -4.2772,-2.4115773 -8.0782,1.106739 -8.0782,1.106739 z"
       id="path11941"
       inkscape:connector-curvature="0"
       sodipodi:nodetypes="csssscsscssscsc" />
    <path
       sodipodi:nodetypes="cssssssscsscssscc"
       inkscape:connector-curvature="0"
       id="path11943"
       d="m 1285.3035,874.77014 c 1.3294,-4.96929 -2.1712,-8.76677 -4.731,-9.61532 -2.5599,-0.84874 -5.8669,0.99099 -8.9746,3.60353 -3.1077,2.61265 -34.1127,34.2539 -34.5424,34.68238 -0.4297,0.42839 -5.144,6.58628 -6.6292,10.25321 -1.4851,3.66702 0.6484,8.09873 2.8003,9.11119 2.1519,1.01255 5.7924,1.51246 9.1304,-2.30148 3.3381,-3.81393 2.0673,-5.94783 1.7465,-6.84262 -0.3208,-0.89469 -1.5354,-2.11298 -1.5354,-2.11298 0,0 4.8927,6.05326 13.7677,2.06318 8.8749,-3.99009 9.762,-9.97584 10.4313,-13.31525 0.4069,-2.0287 -1.8286,-8.13655 -1.8286,-8.13655 0,0 5.0761,2.22653 7.9845,-1.15901 2.9083,-3.38546 0.2237,-7.51056 -0.6266,-8.36332 -0.8502,-0.85276 3.3883,1.96598 5.9323,-1.78491 2.5439,-3.75099 -1.2305,-5.81783 -1.2305,-5.81783 0,0 5.4749,3.77235 8.3053,-0.26422 z"
       style="opacity:0.36653388999999997;fill:#ffffff;stroke:none" />
    <path
       sodipodi:nodetypes="cssssssscsscssscc"
       inkscape:connector-curvature="0"
       id="path11945"
       d="m 459.76879,-276.84287 c -3.87173,3.38674 -3.07939,8.49036 -1.42601,10.6209 1.65341,2.1306 5.42469,2.44454 9.46086,2.00555 4.03617,-0.43904 47.40989,-9.44993 48.00542,-9.56642 0.59552,-0.11649 7.94057,-2.60514 11.21645,-4.82355 3.27585,-2.21844 3.97217,-7.08743 2.74879,-9.12683 -1.22336,-2.0394 -3.96838,-4.48229 -8.86497,-3.17382 -4.89661,1.30847 -5.02975,3.78855 -5.26162,4.71035 -0.23194,0.92177 0.0984,2.61006 0.0984,2.61006 0,0 -0.69219,-7.75251 -10.2855,-9.38156 -9.59331,-1.62904 -13.66388,2.84831 -16.07966,5.24906 -1.46765,1.45853 -3.01303,7.77621 -3.01303,7.77621 0,0 -2.97587,-4.67647 -7.27694,-3.4845 -4.30108,1.19199 -4.36885,6.11329 -4.13767,7.29509 0.2312,1.18178 -1.71913,-3.52001 -5.92111,-1.82156 -4.202,1.69847 -2.21831,5.51729 -2.21831,5.51729 0,0 -2.44605,-6.18241 -7.04509,-4.40628 z"
       style="opacity:0.68127488999999997;fill:#ffffff;stroke:none" />
    <path
       style="opacity:0.62948207000000000;fill:#ffffff;stroke:none"
       d="m 121.5419,-29.279674 c 6.47348,1.566902 12.72363,-10.714852 15.35619,-14.671711 2.63257,-3.95687 14.04272,-20.797271 15.46507,-25.102635 1.42233,-4.30538 2.02074,-7.103933 -1.15842,-9.447409 -2.48949,-1.835097 -7.20789,-4.338851 -10.86318,0.535924 -3.65529,4.874786 1.2678,7.693499 1.2678,7.693499 0,0 -10.2463,-5.789502 -14.3908,-3.066876 -4.90263,3.220653 -5.5145,6.60614 -4.68876,10.009703 1.23297,5.082034 6.97849,7.839562 6.97849,7.839562 0,0 -5.25537,-2.925633 -8.801,0.08125 -3.63906,3.086157 -3.66451,4.754476 -3.15031,6.923253 0.42624,1.797856 1.97047,4.600877 3.26025,5.594111 1.08974,0.839239 2.40887,1.488545 2.40887,1.488545 0,0 -6.20713,0.551141 -6.38176,5.458325 -0.17461,4.90717 4.69754,6.664503 4.69754,6.664503 z"
       id="path11947"
       inkscape:connector-curvature="0"
       sodipodi:nodetypes="csssscsscssscsc" />
    <path
       sodipodi:nodetypes="csssscsscssscsc"
       inkscape:connector-curvature="0"
       id="path11949"
       d="m 99.237911,176.90659 c 4.915859,-0.31176 6.639339,-10.35644 7.631789,-13.72823 0.99243,-3.37176 5.36175,-17.76714 5.42299,-21.11989 0.0612,-3.35274 -0.12931,-5.46061 -2.8884,-6.41926 -2.16058,-0.7507 -6.04202,-1.48527 -7.55573,2.75895 -1.51369,4.24423 2.58139,5.15644 2.58139,5.15644 0,0 -8.506038,-1.84414 -10.836879,0.98713 -2.757212,3.34918 -2.447565,5.87458 -1.118484,8.09772 1.984513,3.31949 6.647073,4.00825 6.647073,4.00825 0,0 -4.353185,-0.91491 -6.198723,1.98593 -1.894182,2.9773 -1.546578,4.16128 -0.708142,5.58052 0.695041,1.17648 2.400008,2.818 3.528685,3.23693 0.953634,0.35398 2.027666,0.52354 2.027666,0.52354 0,0 -4.263596,1.74945 -3.311644,5.25388 0.951957,3.5044 4.778445,3.67808 4.778445,3.67808 z"
       style="opacity:0.50199998000000001;fill:#ffffff;stroke:none" />
    <path
       sodipodi:nodetypes="cssssssscsscssscc"
       inkscape:connector-curvature="0"
       id="path11951"
       d="m 139.06414,832.63772 c 4.69085,2.11097 9.00172,-0.73354 10.25084,-3.12366 1.24918,-2.39015 -0.0349,-5.94994 -2.11391,-9.43724 -2.07901,-3.48728 -28.3241,-39.17582 -28.67787,-39.66882 -0.35379,-0.49302 -5.67358,-6.13596 -9.05412,-8.19136 -3.38054,-2.05539 -8.09761,-0.66211 -9.44284,1.29906 -1.345248,1.96116 -2.424054,5.47386 0.80364,9.38164 3.22767,3.90781 5.53816,2.99668 6.47283,2.82388 0.93467,-0.17281 2.33233,-1.17574 2.33233,-1.17574 0,0 -6.76112,3.8559 -4.24973,13.25688 2.51138,9.40097 8.27666,11.23883 11.46503,12.43628 1.93703,0.72747 8.32473,-0.4967 8.32473,-0.4967 0,0 -3.01369,4.65218 -0.13978,8.06697 2.87391,3.41479 7.37695,1.42821 8.3553,0.72615 0.97836,-0.70206 -2.48518,3.02816 0.80801,6.14206 3.29321,3.11389 5.93999,-0.27918 5.93999,-0.27918 0,0 -4.60352,4.79719 -1.07445,8.23978 z"
       style="opacity:0.68127488999999997;fill:#ffffff;stroke:none" />
    <path
       sodipodi:nodetypes="csscscsssssc"
       inkscape:connector-curvature="0"
       id="path11953"
       d="m 62.864816,-148.78534 c -6.284042,-7.8787 -2.289998,-14.82724 -0.630915,-17.71356 1.659063,-2.88632 9.277269,-5.61837 13.839996,-3.99124 4.562726,1.62712 7.70133,2.86232 7.70133,2.86232 0,0 -5.998259,-3.27453 -3.787612,-7.43928 2.210656,-4.16476 8.964573,-2.84255 8.964573,-2.84255 0,0 7.686049,1.37799 4.547602,9.56693 -2.279263,5.94718 -17.315702,33.15569 -19.37763,34.99383 -3.006875,2.68047 -4.872458,6.29558 -10.248854,5.76519 -8.924899,-0.88048 -9.802184,-11.32314 -7.132263,-14.05509 2.66992,-2.73192 6.715378,-3.39321 9.027457,-2.6331 2.312098,0.76011 -2.903664,-4.51345 -2.903664,-4.51345 z"
       style="opacity:0.40000000000000002;fill:#ffffff;stroke:none" />
    <path
       style="opacity:0.80000000000000004;fill:#ffffff;stroke:none"
       d="m 152.98021,-125.18963 c 11.77949,5.81504 29.11871,-15.11596 35.89598,-21.59171 6.77728,-6.47575 36.01776,-33.94738 40.61689,-41.6172 4.59915,-7.66982 6.96103,-12.79638 1.85683,-18.68099 -3.99697,-4.60807 -11.99384,-11.4668 -21.13618,-3.66701 -9.14234,7.79978 -0.8878,15.35317 -0.8878,15.35317 0,0 -17.21333,-15.57247 -26.36628,-12.12574 -10.82722,4.07722 -13.46891,10.32742 -13.35194,17.23413 0.17468,10.31281 10.03833,18.10416 10.03833,18.10416 0,0 -8.84775,-7.90286 -16.9712,-3.65009 -8.33756,4.36488 -9.10807,7.56428 -9.05657,11.96013 0.0427,3.64402 1.80197,9.70585 3.85438,12.17499 1.73408,2.0862 3.99172,3.90623 3.99172,3.90623 0,0 -12.18296,-1.62399 -14.64135,7.74353 -2.4584,9.3675 6.15719,14.8564 6.15719,14.8564 z"
       id="path11955"
       inkscape:connector-curvature="0"
       sodipodi:nodetypes="csssscsscssscsc" />
    <path
       style="opacity:0.62948207000000000;fill:#ffffff;stroke:none"
       d="m 1198.4096,956.95526 c -5.4982,-3.75899 -15.6947,5.51131 -19.5585,8.27867 -3.8638,2.76736 -20.5007,14.4722 -23.3562,17.99427 -2.8556,3.52207 -4.4068,5.92703 -2.2641,9.24497 1.6777,2.59814 5.2029,6.61135 10.3483,3.34799 5.1454,-3.26334 1.5405,-7.64357 1.5405,-7.64357 0,0 7.5301,9.04445 12.3704,7.96697 5.7257,-1.27455 7.4975,-4.22357 7.9313,-7.6989 0.6477,-5.1892 -3.7479,-9.80362 -3.7479,-9.80362 0,0 3.8777,4.59794 8.2587,3.04246 4.4966,-1.59648 5.1114,-3.14756 5.3991,-5.35781 0.2384,-1.83226 -0.2124,-5.00058 -1.0666,-6.38639 -0.7217,-1.17091 -1.7252,-2.2455 -1.7252,-2.2455 0,0 5.9997,1.68399 7.9018,-2.84294 1.9021,-4.52692 -2.0314,-7.8966 -2.0314,-7.8966 z"
       id="path11957"
       inkscape:connector-curvature="0"
       sodipodi:nodetypes="csssscsscssscsc" />
    <path
       sodipodi:nodetypes="csssscsscssscsc"
       inkscape:connector-curvature="0"
       id="path11959"
       d="m 1351.0139,841.67316 c -4.7915,-1.14219 -9.3823,7.95675 -11.319,10.8898 -1.9368,2.93304 -10.332,15.41654 -11.3729,18.60422 -1.0404,3.18782 -1.4762,5.25887 0.8809,6.98381 1.8458,1.35078 5.3418,3.19034 8.0325,-0.42415 2.6907,-3.61451 -0.9573,-5.68649 -0.9573,-5.68649 0,0 7.5925,4.25538 10.6506,2.23126 3.6174,-2.3944 4.0613,-4.8997 3.4419,-7.41469 -0.9249,-3.75524 -5.1811,-5.77984 -5.1811,-5.77984 0,0 3.8942,2.1502 6.5086,-0.0826 2.6833,-2.29169 2.6979,-3.52555 2.3121,-5.12816 -0.3199,-1.3285 -1.469,-3.39749 -2.4254,-4.12873 -0.8082,-0.61786 -1.7854,-1.09464 -1.7854,-1.09464 0,0 4.589,-0.42354 4.7056,-4.05307 0.1166,-3.62953 -3.491,-4.91667 -3.491,-4.91667 z"
       style="opacity:0.50199998000000001;fill:#ffffff;stroke:none" />
    <path
       sodipodi:nodetypes="cssssssscsscssscc"
       inkscape:connector-curvature="0"
       id="path11961"
       d="m 1375.1099,696.16422 c -0.508,-5.11879 -5.1226,-7.43824 -7.8174,-7.32981 -2.6947,0.10837 -5.1407,2.9959 -7.1277,6.5364 -1.987,3.54052 -19.8451,44.08144 -20.0961,44.63387 -0.2511,0.55242 -2.4916,7.97696 -2.5885,11.93212 -0.097,3.95516 3.462,7.35007 5.8328,7.53878 2.3707,0.18873 5.9536,-0.62686 7.7326,-5.3728 1.779,-4.74593 -0.1625,-6.29483 -0.7781,-7.019 -0.6157,-0.72417 -2.1818,-1.43594 -2.1818,-1.43594 0,0 6.7128,3.9395 13.611,-2.92343 6.8982,-6.86291 5.6179,-12.77706 5.0668,-16.13802 -0.3348,-2.04185 -4.5799,-6.96937 -4.5799,-6.96937 0,0 5.5353,0.29385 7.0632,-3.89963 1.5279,-4.19351 -2.4388,-7.10717 -3.535,-7.60542 -1.0963,-0.49821 3.8638,0.64518 4.9219,-3.76186 1.0582,-4.40704 -3.2026,-5.01041 -3.2026,-5.01041 0,0 6.4533,1.59987 7.6788,-3.17548 z"
       style="opacity:0.68127488999999997;fill:#ffffff;stroke:none" />
    <path
       sodipodi:nodetypes="csssscsscssscsc"
       inkscape:connector-curvature="0"
       id="path11963"
       d="m 957.68955,976.64713 c -4.70465,-4.71461 -16.44516,2.50101 -20.75565,4.50274 -4.31048,2.00174 -22.83158,10.4136 -26.29153,13.34414 -3.45996,2.93058 -5.43076,5.00567 -3.94159,8.66369 1.16611,2.8645 3.88467,7.4625 9.54659,5.2114 5.66191,-2.2512 2.93306,-7.2246 2.93306,-7.2246 0,0 5.71965,10.2855 10.67587,10.1256 5.86281,-0.1891 8.1514,-2.758 9.223,-6.0922 1.60008,-4.9787 -1.86227,-10.32912 -1.86227,-10.32912 0,0 2.95651,5.23802 7.55017,4.52316 4.71473,-0.73374 5.607,-2.14363 6.30006,-4.26205 0.57453,-1.7561 0.71987,-4.95304 0.13789,-6.47336 -0.49168,-1.28457 -1.27816,-2.52679 -1.27816,-2.52679 0,0 5.58265,2.7688 8.29225,-1.32619 2.70959,-4.09498 -0.52964,-8.13645 -0.52964,-8.13645 z"
       style="opacity:0.62948207000000000;fill:#ffffff;stroke:none" />
    <path
       style="opacity:0.36653388999999997;fill:#ffffff;stroke:none"
       d="m 1374.5969,331.79107 c -2.4865,-4.50305 -7.6419,-4.81352 -10.0752,-3.65064 -2.4333,1.16277 -3.5416,4.78116 -3.9704,8.81841 -0.4289,4.03734 -0.842,48.33524 -0.8547,48.94188 -0.013,0.60672 0.858,8.31285 2.3295,11.98534 1.4716,3.67257 6.0814,5.38773 8.3342,4.62581 2.2528,-0.762 5.2232,-2.92517 4.9853,-7.98805 -0.2379,-5.06274 -2.633,-5.71992 -3.4845,-6.14247 -0.8514,-0.4224 -2.5713,-0.45853 -2.5713,-0.45853 0,0 7.7225,0.97124 11.3532,-8.05669 3.6307,-9.02792 0.1207,-13.95708 -1.7118,-16.8279 -1.1133,-1.74405 -6.9582,-4.59685 -6.9582,-4.59685 0,0 5.2022,-1.91399 4.9515,-6.37013 -0.2507,-4.45614 -5.0451,-5.56832 -6.2491,-5.59356 -1.2039,-0.0252 3.805,-0.93177 3.0384,-5.39869 -0.7666,-4.467 -4.9198,-3.34024 -4.9198,-3.34024 0,0 6.561,-1.07627 5.8029,-5.94769 z"
       id="path11965"
       inkscape:connector-curvature="0"
       sodipodi:nodetypes="cssssssscsscssscc" />
    <path
       style="opacity:0.80000000000000004;fill:#ffffff;stroke:none"
       d="m 312.53838,970.19895 c 3.48794,-12.66512 -20.33876,-25.74347 -27.97698,-31.17711 -7.63823,-5.43365 -40.13369,-28.96533 -48.53353,-32.03465 -8.39987,-3.06933 -13.87998,-4.42147 -18.69579,1.70139 -3.77112,4.79466 -8.99775,13.94204 0.38698,21.44844 9.38472,7.50639 15.2449,-2.0251 15.2449,-2.0251 0,0 -12.04479,19.84245 -6.93293,28.18062 6.04694,9.86343 12.68331,11.27834 19.4439,9.86026 10.0946,-2.11744 15.88484,-13.27404 15.88484,-13.27404 0,0 -6.09144,10.17998 -0.38226,17.35506 5.85966,7.3642 9.14697,7.5172 13.45414,6.63717 3.57052,-0.7295 9.1915,-3.60097 11.22904,-6.08241 1.72153,-2.09657 3.08286,-4.65706 3.08286,-4.65706 0,0 0.70397,12.27053 10.36708,12.91723 9.6631,0.6467 13.42775,-8.8498 13.42775,-8.8498 z"
       id="path11967"
       inkscape:connector-curvature="0"
       sodipodi:nodetypes="csssscsscssscsc" />
    <path
       style="opacity:0.69999999999999996;fill:#ffffff;stroke:none"
       d="m 141.76563,988.6246 c 4.08582,-8.04109 -10.14685,-20.11152 -14.53903,-24.81587 -4.39219,-4.70437 -23.02094,-24.99754 -28.250197,-28.21595 -5.229261,-3.21843 -8.730165,-4.88068 -12.810781,-1.42306 -3.195411,2.70758 -7.96777,8.14346 -2.68533,14.48206 5.282425,6.3386 10.533737,0.73134 10.533737,0.73134 0,0 -10.827938,11.69432 -8.534197,18.00567 2.713316,7.46585 6.983448,9.3291 11.72622,9.3036 7.081698,-0.0381 12.509148,-6.7482 12.509148,-6.7482 0,0 -5.49596,6.01175 -2.64065,11.62269 2.93057,5.75885 5.12101,6.31322 8.13942,6.31275 2.50215,-3.9e-4 6.67788,-1.16013 8.38938,-2.54964 1.44608,-1.174 2.71351,-2.70953 2.71351,-2.70953 0,0 -1.21162,8.35138 5.20016,10.11351 6.41181,1.76216 10.24861,-4.10937 10.24861,-4.10937 z"
       id="path11969"
       inkscape:connector-curvature="0"
       sodipodi:nodetypes="csssscsscssscsc" />
    <path
       sodipodi:nodetypes="csssscsscssscsc"
       inkscape:connector-curvature="0"
       id="path11971"
       d="m 52.222751,372.69973 c 4.742165,-1.33217 4.328518,-11.51525 4.594426,-15.01998 0.265919,-3.50471 1.530494,-18.49532 0.889738,-21.78685 -0.640745,-3.29152 -1.267586,-5.31302 -4.166088,-5.67394 -2.269751,-0.2826 -6.219005,-0.18984 -6.812355,4.277 -0.593327,4.46685 3.60193,4.50317 3.60193,4.50317 0,0 -8.703619,-0.0259 -10.391331,3.22997 -1.996437,3.85142 -1.16588,6.25636 0.598434,8.15267 2.634376,2.83148 7.337934,2.53069 7.337934,2.53069 0,0 -4.448259,0.015 -5.646852,3.23745 -1.23018,3.3074 -0.642827,4.3926 0.473677,5.60528 0.925559,1.00528 2.93591,2.25425 4.127214,2.42807 1.00656,0.14687 2.092312,0.0882 2.092312,0.0882 0,0 -3.803875,2.60181 -2.140607,5.82994 1.663274,3.22808 5.441568,2.59829 5.441568,2.59829 z"
       style="opacity:0.50199998000000001;fill:#ffffff;stroke:none" />
    <path
       sodipodi:nodetypes="csscscsssssc"
       inkscape:connector-curvature="0"
       id="path11973"
       d="m 55.589672,577.55617 c -9.95236,-1.58545 -11.684643,-9.41065 -12.40421,-12.66112 -0.719555,-3.25046 3.067297,-10.40314 7.534737,-12.27612 4.467429,-1.87299 7.618614,-3.07572 7.618614,-3.07572 0,0 -6.63824,1.62338 -7.811914,-2.94329 -1.173666,-4.56669 4.707067,-8.14169 4.707067,-8.14169 0,0 6.606963,-4.16201 9.80731,4.00294 2.324251,5.92975 9.552944,36.16456 9.268458,38.91217 -0.414898,4.00675 0.643272,7.93481 -3.686138,11.16641 -7.186892,5.36448 -14.872871,-1.75905 -14.741593,-5.57675 0.131285,-3.81767 2.674282,-7.03265 4.894677,-8.02934 2.220405,-0.99668 -5.187008,-1.37749 -5.187008,-1.37749 z"
       style="opacity:0.40000000000000002;fill:#ffffff;stroke:none" />
    <path
       style="opacity:0.36653388999999997;fill:#ffffff;stroke:none"
       d="m 723.50089,1010.3117 c 4.52739,-2.4419 4.88875,-7.594 3.75001,-10.0386 -1.13874,-2.44468 -4.74602,-3.58866 -8.77884,-4.05733 -4.03283,-0.46866 -48.32452,-1.31932 -48.93104,-1.33804 -0.60652,-0.0187 -8.32091,0.77588 -12.00777,2.21106 -3.68686,1.43524 -5.44752,6.02771 -4.70781,8.28811 0.73966,2.2602 2.8734,5.2518 7.93831,5.0639 5.0649,-0.1883 5.74574,-2.5764 6.17662,-3.4236 0.43087,-0.8472 0.48394,-2.5667 0.48394,-2.5667 0,0 -1.04749,7.7126 7.94414,11.4322 8.99163,3.7197 13.9552,0.2585 16.84399,-1.5455 1.75501,-1.0959 4.66536,-6.9124 4.66536,-6.9124 0,0 1.86249,5.2207 6.32093,5.0141 4.45858,-0.2034 5.61786,-4.9899 5.655,-6.1935 0.0371,-1.2036 0.89413,3.814 5.36845,3.0915 4.47433,-0.7224 3.38864,-4.8865 3.38864,-4.8865 0,0 1.0114,6.5713 5.89007,5.8613 z"
       id="path11975"
       inkscape:connector-curvature="0"
       sodipodi:nodetypes="cssssssscsscssscc" />
  </g>
</svg>
