<?xml version="1.0" encoding="UTF-8" standalone="no"?>
<!-- Created with Inkscape (http://www.inkscape.org/) -->

<svg
   xmlns:dc="http://purl.org/dc/elements/1.1/"
   xmlns:cc="http://creativecommons.org/ns#"
   xmlns:rdf="http://www.w3.org/1999/02/22-rdf-syntax-ns#"
   xmlns:svg="http://www.w3.org/2000/svg"
   xmlns="http://www.w3.org/2000/svg"
   xmlns:xlink="http://www.w3.org/1999/xlink"
   xmlns:sodipodi="http://sodipodi.sourceforge.net/DTD/sodipodi-0.dtd"
   xmlns:inkscape="http://www.inkscape.org/namespaces/inkscape"
   width="210mm"
   height="297mm"
   id="svg2"
   version="1.1"
   inkscape:version="0.48.2 r9819"
   sodipodi:docname="mrfogg-logo.svg">
  <defs
     id="defs4">
    <linearGradient
       id="linearGradient4063"
       inkscape:collect="always">
      <stop
         id="stop4065"
         offset="0"
         style="stop-color:#ffffff;stop-opacity:1;" />
      <stop
         id="stop4067"
         offset="1"
         style="stop-color:#d5f6ff;stop-opacity:1" />
    </linearGradient>
    <linearGradient
       id="linearGradient4057"
       inkscape:collect="always">
      <stop
         id="stop4059"
         offset="0"
         style="stop-color:#ffffff;stop-opacity:1;" />
      <stop
         id="stop4061"
         offset="1"
         style="stop-color:#d5f6ff;stop-opacity:1" />
    </linearGradient>
    <linearGradient
       id="linearGradient4051"
       inkscape:collect="always">
      <stop
         id="stop4053"
         offset="0"
         style="stop-color:#ffffff;stop-opacity:1;" />
      <stop
         id="stop4055"
         offset="1"
         style="stop-color:#d5f6ff;stop-opacity:1" />
    </linearGradient>
    <linearGradient
       id="linearGradient4045"
       inkscape:collect="always">
      <stop
         id="stop4047"
         offset="0"
         style="stop-color:#ffffff;stop-opacity:1;" />
      <stop
         id="stop4049"
         offset="1"
         style="stop-color:#d5f6ff;stop-opacity:1" />
    </linearGradient>
    <linearGradient
       id="linearGradient4039"
       inkscape:collect="always">
      <stop
         id="stop4041"
         offset="0"
         style="stop-color:#ffffff;stop-opacity:1;" />
      <stop
         id="stop4043"
         offset="1"
         style="stop-color:#d5f6ff;stop-opacity:1" />
    </linearGradient>
    <linearGradient
       id="linearGradient4033"
       inkscape:collect="always">
      <stop
         id="stop4035"
         offset="0"
         style="stop-color:#ffffff;stop-opacity:1;" />
      <stop
         id="stop4037"
         offset="1"
         style="stop-color:#d5f6ff;stop-opacity:1" />
    </linearGradient>
    <linearGradient
       inkscape:collect="always"
       id="linearGradient4013">
      <stop
         style="stop-color:#ffffff;stop-opacity:1;"
         offset="0"
         id="stop4015" />
      <stop
         style="stop-color:#d5f6ff;stop-opacity:1"
         offset="1"
         id="stop4017" />
    </linearGradient>
    <linearGradient
       inkscape:collect="always"
       id="linearGradient4094">
      <stop
         style="stop-color:#81cadc;stop-opacity:1"
         offset="0"
         id="stop4096" />
      <stop
         style="stop-color:#007f9f;stop-opacity:1"
         offset="1"
         id="stop4098" />
    </linearGradient>
    <linearGradient
       inkscape:collect="always"
       id="linearGradient4036">
      <stop
         style="stop-color:#ac9393;stop-opacity:1"
         offset="0"
         id="stop4038" />
      <stop
         style="stop-color:#6c5353;stop-opacity:1"
         offset="1"
         id="stop4040" />
    </linearGradient>
    <linearGradient
       inkscape:collect="always"
       id="linearGradient3994">
      <stop
         style="stop-color:#000000;stop-opacity:1;"
         offset="0"
         id="stop3996" />
      <stop
         style="stop-color:#483737;stop-opacity:1"
         offset="1"
         id="stop3998" />
    </linearGradient>
    <linearGradient
       inkscape:collect="always"
       id="linearGradient3981">
      <stop
         style="stop-color:#483737;stop-opacity:1"
         offset="0"
         id="stop3983" />
      <stop
         style="stop-color:#241c1c;stop-opacity:1"
         offset="1"
         id="stop3985" />
    </linearGradient>
    <linearGradient
       inkscape:collect="always"
       id="linearGradient3094">
      <stop
         style="stop-color:#483737;stop-opacity:1"
         offset="0"
         id="stop3096" />
      <stop
         style="stop-color:#280b0b;stop-opacity:1"
         offset="1"
         id="stop3098" />
    </linearGradient>
    <linearGradient
       inkscape:collect="always"
       xlink:href="#linearGradient3094"
       id="linearGradient3100"
       x1="405.07117"
       y1="523.04224"
       x2="407.09146"
       y2="661.43317"
       gradientUnits="userSpaceOnUse" />
    <linearGradient
       inkscape:collect="always"
       xlink:href="#linearGradient3981"
       id="linearGradient3987"
       x1="405.07117"
       y1="255.8569"
       x2="408.60672"
       y2="391.72241"
       gradientUnits="userSpaceOnUse" />
    <linearGradient
       inkscape:collect="always"
       xlink:href="#linearGradient3994"
       id="linearGradient4000"
       x1="392.44427"
       y1="112.41524"
       x2="391.43411"
       y2="252.32137"
       gradientUnits="userSpaceOnUse" />
    <linearGradient
       inkscape:collect="always"
       xlink:href="#linearGradient3994-8"
       id="linearGradient4000-6"
       x1="392.44427"
       y1="112.41524"
       x2="391.43411"
       y2="252.32137"
       gradientUnits="userSpaceOnUse" />
    <linearGradient
       inkscape:collect="always"
       id="linearGradient3994-8">
      <stop
         style="stop-color:#000000;stop-opacity:1;"
         offset="0"
         id="stop3996-1" />
      <stop
         style="stop-color:#483737;stop-opacity:1"
         offset="1"
         id="stop3998-7" />
    </linearGradient>
    <radialGradient
       inkscape:collect="always"
       xlink:href="#linearGradient4036"
       id="radialGradient4042"
       cx="378.57144"
       cy="111.85838"
       fx="378.57144"
       fy="111.85838"
       r="192.05592"
       gradientTransform="matrix(-4.0682621e-6,0.42603405,-0.7586425,9.8821991e-7,463.43351,45.074987)"
       gradientUnits="userSpaceOnUse" />
    <linearGradient
       inkscape:collect="always"
       xlink:href="#linearGradient4094"
       id="linearGradient4100"
       x1="584.28571"
       y1="135.21933"
       x2="274.28571"
       y2="818.07648"
       gradientUnits="userSpaceOnUse" />
    <linearGradient
       inkscape:collect="always"
       xlink:href="#linearGradient4013"
       id="linearGradient4019"
       x1="337.99704"
       y1="410.30923"
       x2="339.41125"
       y2="780.83319"
       gradientUnits="userSpaceOnUse" />
    <linearGradient
       inkscape:collect="always"
       xlink:href="#linearGradient4063"
       id="linearGradient4021"
       x1="337.99704"
       y1="410.30923"
       x2="339.41125"
       y2="780.83319"
       gradientUnits="userSpaceOnUse" />
    <linearGradient
       inkscape:collect="always"
       xlink:href="#linearGradient4057"
       id="linearGradient4023"
       x1="337.99704"
       y1="410.30923"
       x2="339.41125"
       y2="780.83319"
       gradientUnits="userSpaceOnUse" />
    <linearGradient
       inkscape:collect="always"
       xlink:href="#linearGradient4051"
       id="linearGradient4025"
       x1="337.99704"
       y1="410.30923"
       x2="339.41125"
       y2="780.83319"
       gradientUnits="userSpaceOnUse" />
    <linearGradient
       inkscape:collect="always"
       xlink:href="#linearGradient4045"
       id="linearGradient4027"
       x1="337.99704"
       y1="410.30923"
       x2="339.41125"
       y2="780.83319"
       gradientUnits="userSpaceOnUse" />
    <linearGradient
       inkscape:collect="always"
       xlink:href="#linearGradient4039"
       id="linearGradient4029"
       x1="337.99704"
       y1="410.30923"
       x2="339.41125"
       y2="780.83319"
       gradientUnits="userSpaceOnUse" />
    <linearGradient
       inkscape:collect="always"
       xlink:href="#linearGradient4033"
       id="linearGradient4031"
       x1="337.99704"
       y1="410.30923"
       x2="339.41125"
       y2="780.83319"
       gradientUnits="userSpaceOnUse" />
    <filter
       id="filter5245"
       inkscape:label="Drop shadow"
       width="1.5"
       height="1.5"
       x="-.25"
       y="-.25">
      <feGaussianBlur
         id="feGaussianBlur5247"
         in="SourceAlpha"
         stdDeviation="0.1"
         result="blur" />
      <feColorMatrix
         id="feColorMatrix5249"
         result="bluralpha"
         type="matrix"
         values="1 0 0 0 0 0 1 0 0 0 0 0 1 0 0 0 0 0 0.3 0 " />
      <feOffset
         id="feOffset5251"
         in="bluralpha"
         dx="0"
         dy="8"
         result="offsetBlur" />
      <feMerge
         id="feMerge5253">
        <feMergeNode
           id="feMergeNode5255"
           in="offsetBlur" />
        <feMergeNode
           id="feMergeNode5257"
           in="SourceGraphic" />
      </feMerge>
    </filter>
    <filter
       id="filter5259"
       inkscape:label="Drop shadow"
       width="1.5"
       height="1.5"
       x="-.25"
       y="-.25">
      <feGaussianBlur
         id="feGaussianBlur5261"
         in="SourceAlpha"
         stdDeviation="0.1"
         result="blur" />
      <feColorMatrix
         id="feColorMatrix5263"
         result="bluralpha"
         type="matrix"
         values="1 0 0 0 0 0 1 0 0 0 0 0 1 0 0 0 0 0 0.3 0 " />
      <feOffset
         id="feOffset5265"
         in="bluralpha"
         dx="0"
         dy="8"
         result="offsetBlur" />
      <feMerge
         id="feMerge5267">
        <feMergeNode
           id="feMergeNode5269"
           in="offsetBlur" />
        <feMergeNode
           id="feMergeNode5271"
           in="SourceGraphic" />
      </feMerge>
    </filter>
    <filter
       id="filter5273"
       inkscape:label="Drop shadow"
       width="1.5"
       height="1.5"
       x="-.25"
       y="-.25">
      <feGaussianBlur
         id="feGaussianBlur5275"
         in="SourceAlpha"
         stdDeviation="0.1"
         result="blur" />
      <feColorMatrix
         id="feColorMatrix5277"
         result="bluralpha"
         type="matrix"
         values="1 0 0 0 0 0 1 0 0 0 0 0 1 0 0 0 0 0 0.3 0 " />
      <feOffset
         id="feOffset5279"
         in="bluralpha"
         dx="0"
         dy="8"
         result="offsetBlur" />
      <feMerge
         id="feMerge5281">
        <feMergeNode
           id="feMergeNode5283"
           in="offsetBlur" />
        <feMergeNode
           id="feMergeNode5285"
           in="SourceGraphic" />
      </feMerge>
    </filter>
    <filter
       id="filter5287"
       inkscape:label="Drop shadow"
       width="1.5"
       height="1.5"
       x="-.25"
       y="-.25">
      <feGaussianBlur
         id="feGaussianBlur5289"
         in="SourceAlpha"
         stdDeviation="0.1"
         result="blur" />
      <feColorMatrix
         id="feColorMatrix5291"
         result="bluralpha"
         type="matrix"
         values="1 0 0 0 0 0 1 0 0 0 0 0 1 0 0 0 0 0 0.3 0 " />
      <feOffset
         id="feOffset5293"
         in="bluralpha"
         dx="0"
         dy="8"
         result="offsetBlur" />
      <feMerge
         id="feMerge5295">
        <feMergeNode
           id="feMergeNode5297"
           in="offsetBlur" />
        <feMergeNode
           id="feMergeNode5299"
           in="SourceGraphic" />
      </feMerge>
    </filter>
    <filter
       id="filter5301"
       inkscape:label="Drop shadow"
       width="1.5"
       height="1.5"
       x="-.25"
       y="-.25">
      <feGaussianBlur
         id="feGaussianBlur5303"
         in="SourceAlpha"
         stdDeviation="0.1"
         result="blur" />
      <feColorMatrix
         id="feColorMatrix5305"
         result="bluralpha"
         type="matrix"
         values="1 0 0 0 0 0 1 0 0 0 0 0 1 0 0 0 0 0 0.3 0 " />
      <feOffset
         id="feOffset5307"
         in="bluralpha"
         dx="0"
         dy="8"
         result="offsetBlur" />
      <feMerge
         id="feMerge5309">
        <feMergeNode
           id="feMergeNode5311"
           in="offsetBlur" />
        <feMergeNode
           id="feMergeNode5313"
           in="SourceGraphic" />
      </feMerge>
    </filter>
    <filter
       id="filter5315"
       inkscape:label="Drop shadow"
       width="1.5"
       height="1.5"
       x="-.25"
       y="-.25">
      <feGaussianBlur
         id="feGaussianBlur5317"
         in="SourceAlpha"
         stdDeviation="0.1"
         result="blur" />
      <feColorMatrix
         id="feColorMatrix5319"
         result="bluralpha"
         type="matrix"
         values="1 0 0 0 0 0 1 0 0 0 0 0 1 0 0 0 0 0 0.3 0 " />
      <feOffset
         id="feOffset5321"
         in="bluralpha"
         dx="0"
         dy="8"
         result="offsetBlur" />
      <feMerge
         id="feMerge5323">
        <feMergeNode
           id="feMergeNode5325"
           in="offsetBlur" />
        <feMergeNode
           id="feMergeNode5327"
           in="SourceGraphic" />
      </feMerge>
    </filter>
    <filter
       id="filter5329"
       inkscape:label="Drop shadow"
       width="1.5"
       height="1.5"
       x="-.25"
       y="-.25">
      <feGaussianBlur
         id="feGaussianBlur5331"
         in="SourceAlpha"
         stdDeviation="0.1"
         result="blur" />
      <feColorMatrix
         id="feColorMatrix5333"
         result="bluralpha"
         type="matrix"
         values="1 0 0 0 0 0 1 0 0 0 0 0 1 0 0 0 0 0 0.3 0 " />
      <feOffset
         id="feOffset5335"
         in="bluralpha"
         dx="0"
         dy="8"
         result="offsetBlur" />
      <feMerge
         id="feMerge5337">
        <feMergeNode
           id="feMergeNode5339"
           in="offsetBlur" />
        <feMergeNode
           id="feMergeNode5341"
           in="SourceGraphic" />
      </feMerge>
    </filter>
    <filter
       id="filter5343"
       inkscape:label="Drop shadow"
       width="1.5"
       height="1.5"
       x="-.25"
       y="-.25">
      <feGaussianBlur
         id="feGaussianBlur5345"
         in="SourceAlpha"
         stdDeviation="0.1"
         result="blur" />
      <feColorMatrix
         id="feColorMatrix5347"
         result="bluralpha"
         type="matrix"
         values="1 0 0 0 0 0 1 0 0 0 0 0 1 0 0 0 0 0 0.3 0 " />
      <feOffset
         id="feOffset5349"
         in="bluralpha"
         dx="0"
         dy="8"
         result="offsetBlur" />
      <feMerge
         id="feMerge5351">
        <feMergeNode
           id="feMergeNode5353"
           in="offsetBlur" />
        <feMergeNode
           id="feMergeNode5355"
           in="SourceGraphic" />
      </feMerge>
    </filter>
  </defs>
  <sodipodi:namedview
     id="base"
     pagecolor="#ffffff"
     bordercolor="#666666"
     borderopacity="1.0"
     inkscape:pageopacity="0.0"
     inkscape:pageshadow="2"
     inkscape:zoom="0.70710678"
     inkscape:cx="247.11273"
     inkscape:cy="628.20452"
     inkscape:document-units="px"
     inkscape:current-layer="layer5"
     showgrid="false"
     showguides="true"
     inkscape:guide-bbox="true"
     inkscape:window-width="1676"
     inkscape:window-height="1006"
     inkscape:window-x="4"
     inkscape:window-y="0"
     inkscape:window-maximized="1" />
  <metadata
     id="metadata7">
    <rdf:RDF>
      <cc:Work
         rdf:about="">
        <dc:format>image/svg+xml</dc:format>
        <dc:type
           rdf:resource="http://purl.org/dc/dcmitype/StillImage" />
        <dc:title />
      </cc:Work>
    </rdf:RDF>
  </metadata>
  <g
     inkscape:groupmode="layer"
     id="layer6"
     inkscape:label="bg"
     sodipodi:insensitive="true">
    <rect
       style="fill:url(#linearGradient4100);fill-opacity:1;stroke:none"
       id="rect4092"
       width="867.14288"
       height="867.14288"
       x="-55.428574"
       y="57.790756"
       rx="100"
       ry="100" />
  </g>
  <g
     inkscape:groupmode="layer"
     id="layer4"
     inkscape:label="hat">
    <path
       style="fill:url(#linearGradient4000);fill-opacity:1;stroke:none"
       d="m 360.6875,99.0625 c -5.01303,0.35583 -10.89681,0.249692 -17.25,0.96875 -25.56799,2.89381 -42.76373,3.94664 -81.8125,15.90625 -39.12953,11.98435 -44.94146,21.22857 -60.09375,38.90625 -13.25029,15.45867 -17.11287,44.67092 -13.125,80.3125 4.04061,36.11294 10.09375,64.125 10.09375,64.125 l 180.0625,-11.09375 186.5,11.09375 c 0,0 6.25324,-28.01206 10.4375,-64.125 4.12963,-35.64158 -0.46409,-66.92798 -13.84629,-81.57519 -13.97083,-15.29148 -21.47689,-25.65921 -61.99746,-37.64356 -40.43693,-11.95961 -58.24183,-13.01244 -84.71875,-15.90625 -21.05293,-2.300986 -36.73416,-1.665877 -36.36607,-1.517767 0.24437,-0.10183 -6.82754,-0.235777 -17.88393,0.549017 z"
       id="path3989"
       inkscape:connector-curvature="0"
       sodipodi:nodetypes="ssssscccsssscs" />
    <path
       style="fill:url(#radialGradient4042);fill-opacity:1;stroke:none"
       d="m 359.92017,189.8123 c -4.93225,0.18508 -10.72121,0.12988 -16.97201,0.50388 -25.15599,1.50515 -42.07462,2.05276 -80.49412,8.27331 -38.49897,6.23341 -45.21111,12.61784 -59.12536,20.23628 -13.91423,7.61845 -16.83709,23.23466 -12.91349,41.7729 3.9755,18.7834 9.93109,33.3533 9.93109,33.3533 l 177.16083,-5.77019 183.4946,5.77019 c 0,0 6.15248,-14.5699 10.26931,-33.3533 4.06309,-18.53824 1.0342,-34.15445 -13.37469,-41.7729 -14.40888,-7.61844 -21.37926,-14.00287 -61.24686,-20.23628 -39.7853,-6.22055 -57.30327,-6.76816 -83.35352,-8.27331 -20.71368,-1.19681 -36.14221,-0.86647 -35.78005,-0.78943 0.24043,-0.053 -6.71752,-0.12264 -17.59573,0.28555 z"
       id="path3989-0"
       inkscape:connector-curvature="0"
       sodipodi:nodetypes="ssssscccsssscs" />
    <path
       style="fill:url(#linearGradient3987);fill-opacity:1;stroke:none;display:inline"
       d="m 138.2444,286.66655 c 16.66752,-40.91118 62.12438,-46.97209 88.38835,-50.00255 26.26396,-3.03046 109.63507,9.09137 156.33786,9.09137 46.70279,0 136.60637,-17.17259 169.9414,-7.07106 33.33504,10.10152 59.599,27.27411 60.60915,49.49747 1.01016,22.22336 -3.03045,50.50762 -29.29442,66.67007 -18.47153,11.3671 -102.49696,34.34519 -201.25613,33.33503 -98.75917,-1.01015 -197.24903,-20.70813 -217.45209,-32.82996 -20.20305,-12.12183 -34.34518,-35.86041 -27.27412,-68.69037 z"
       id="path3878-9"
       inkscape:connector-curvature="0"
       sodipodi:nodetypes="csssssssc" />
  </g>
  <g
     inkscape:label="Capa 1"
     inkscape:groupmode="layer"
     id="layer1"
     style="display:inline" />
  <g
     inkscape:groupmode="layer"
     id="layer2"
     inkscape:label="Capa"
     style="opacity:1;display:inline">
    <path
       sodipodi:type="arc"
       style="fill:#000000;fill-rule:evenodd;stroke:#000000;stroke-width:1px;stroke-linecap:butt;stroke-linejoin:miter;stroke-opacity:1;fill-opacity:1"
       id="path2986"
       sodipodi:cx="205.71428"
       sodipodi:cy="320.93362"
       sodipodi:rx="295.71429"
       sodipodi:ry="295.71429"
       d="m 501.42857,320.93362 a 295.71429,295.71429 0 1 1 -591.428585,0 295.71429,295.71429 0 1 1 591.428585,0 z"
       transform="matrix(0.65963266,0,0,-0.18210449,240.447,380.59374)" />
  </g>
  <g
     style="opacity:0.26941181;display:none"
     inkscape:label="guia"
     id="g2988"
     inkscape:groupmode="layer">
    <path
       transform="matrix(1,0,0,-1,167.14286,904.72439)"
       d="m 501.42857,320.93362 a 295.71429,295.71429 0 1 1 -591.428585,0 295.71429,295.71429 0 1 1 591.428585,0 z"
       sodipodi:ry="295.71429"
       sodipodi:rx="295.71429"
       sodipodi:cy="320.93362"
       sodipodi:cx="205.71428"
       id="path2990"
       style="fill:#ff0000;fill-rule:evenodd;stroke:#000000;stroke-width:1px;stroke-linecap:butt;stroke-linejoin:miter;stroke-opacity:1"
       sodipodi:type="arc" />
  </g>
  <g
     inkscape:groupmode="layer"
     id="layer5"
     inkscape:label="text"
     style="display:inline">
    <path
       style="fill:url(#linearGradient4023);stroke:none;fill-opacity:1;filter:url(#filter5301)"
       d="m 82.61586,560.28786 c 5.411721,-46.762 19.50878,-98.53623 69.4205,-165.29822 36.61811,-48.98043 88.04234,-76.12419 110.97393,-81.56163 22.9316,-5.43744 29.2189,9.39982 28.42411,25.71214 -0.79478,16.31232 -28.76325,75.27192 -15.77491,80.63688 12.98834,5.36496 40.43908,-67.58702 57.28859,-79.54939 16.84951,-11.96237 39.21573,-7.7747 44.18088,16.6999 7.35185,36.23932 3.47005,141.09832 -3.3521,177.73567 -2.5882,13.89955 -14.57891,32.14958 -30.64732,26.71214 -16.0684,-5.43744 -26.41043,-32.62465 -25.75245,-59.81186 0.65798,-27.18721 5.50749,-39.64958 -1.56092,-45.08702 -7.0684,-5.43744 -18.10944,-0.19991 -25.34951,12.46237 -10.64455,18.61643 -29.38436,44.93697 -43.48012,37.32456 -14.09577,-7.61242 -17.66417,-20.54986 -18.99251,-46.64958 -1.32835,-26.09972 -0.14301,-40.11195 -14.75245,-48.31186 -18.30975,-10.2768 -36.19825,19.89898 -51.70651,63.57432 -9.41203,26.50676 -17.51498,60.79916 -13.86449,125.76153 0.68191,12.13498 10.67037,42.28693 -10.26123,47.72437 -20.93159,5.43744 -38.83583,1.54986 -49.499997,-20.5 -6.942835,-14.35541 -5.293493,-67.57432 -5.293493,-67.57432 z"
       id="path3194"
       inkscape:connector-curvature="0"
       sodipodi:nodetypes="cssszssssssssssssssc" />
    <path
       style="fill:url(#linearGradient4021);stroke:none;fill-opacity:1;filter:url(#filter5315)"
       d="m 487.46875,306.875 c -38.52539,0.19226 -54.1875,2.40625 -79.96875,23.5 -16,18 -7.31345,57.48485 -5,83.5 2.13,23.95231 4,39 7.5,63 3.5,24 5.5,48.5 15.5,63.5 10,15 13,19.5 32.5,25 19.5,5.5 28,-11 28,-17 0,-6 -4.5,-17.5 -8.5,-29 -4,-11.5 -7.5,-17.5 -9.5,-29.5 -1.66014,-9.96082 -6,-20.7982 5,-24 3.22045,-0.93739 12,3.5 27,17 15,13.5 56.5,51 73.5,62.5 17,11.5 33,22.5 47.5,30.5 14.5,8 35.59915,8.28426 41,8 9.5,-0.5 24,-3 21,-28 -3,-25 -14.5,-29 -31,-33.5 -11.46609,-3.12711 -36.5,-9.5 -58,-18.5 -10.52755,-4.40688 -57.5,-29.5 -71,-47.5 -13.5,-18 18.35292,-30.64703 34,-45.5 21.80946,-20.70259 21.66557,-44.0662 12,-68 -10.5,-26 -29,-36 -73.5,-36 -2.78125,0 -5.46289,-0.0128 -8.03125,0 z M 508,338.125 c 2.50306,0.0195 5,0.125 7.5,0.25 20,1 23,18.5 20.5,33.5 -2.5,15 -27,42.5 -45.5,49 -18.5,6.5 -42.5,0 -55,-21.5 -8.5,-27 6.5,-35 23,-47.5 14.56747,-11.03596 31.97855,-13.88621 49.5,-13.75 z"
       id="path3964"
       inkscape:connector-curvature="0" />
    <path
       style="fill:url(#linearGradient4025);stroke:none;fill-opacity:1;filter:url(#filter5245)"
       d="m 97,659.36218 c -3.293578,33 8.23395,73 18.11467,93 9.88075,20 38.69955,64 70.81193,88 32.11239,24 35.40596,11 35.40596,1 0,-10 -31.28898,-40 -32.11237,-56 -0.82341,-16 4.11697,-28 18.93806,-23 14.82111,5 33.75919,11 40.34633,6 6.58717,-5 14.82111,-30 4.11698,-44 -10.70412,-14 -41.99312,-13 -58.46101,-8 -16.46789,5 -27.17202,16 -36.22935,9 -9.05734,-7 -11.52753,-23 -3.29358,-28 8.23394,-5 36.22935,-13 51.05046,-11 14.8211,2 32.93578,14 44.4633,11 11.52751,-3 26.34862,-18 26.34862,-36 0,-18 -6.58716,-42 -27.99542,-49 -21.40825,-7 -65.87155,-13 -105.39449,10 -39.52293,23 -32.93578,12 -46.11009,37 z"
       id="path3969"
       inkscape:connector-curvature="0" />
    <path
       style="fill:url(#linearGradient4027);stroke:none;fill-opacity:1;filter:url(#filter5287)"
       d="m 335.57374,618.35409 c -41.58006,6.90561 -52.61151,35.73156 -58.55152,56.61198 -3.98476,14.00729 -10.18287,44.26134 -11.03144,86.89851 -0.84857,42.63717 0.42429,70.59847 14.85002,90.35716 14.42574,19.75869 33.51862,27.15506 50.49007,28.19498 16.97146,1.03993 48.36865,-1.03992 63.64295,-15.59897 15.27432,-14.55903 26.30577,-65.51565 25.4572,-101.91324 -0.84858,-36.39758 -4.92667,-82.97088 -21.21433,-111.27263 -15.82596,-27.49949 -34.65255,-35.80342 -63.64295,-33.27779 z"
       id="path3971"
       inkscape:connector-curvature="0"
       sodipodi:nodetypes="csssssssc" />
    <path
       style="fill:#a02c2c;stroke:none"
       d="m 332.26614,648.22169 c -24.13069,4.5858 -30.53271,23.72826 -33.97995,37.59432 -2.31252,9.30181 -5.90956,29.39262 -6.40202,57.70669 -0.49247,28.31405 0.24623,46.88232 8.6181,60.00347 8.37187,13.12115 19.45229,18.03287 29.30157,18.72344 9.84925,0.69058 28.07039,-0.69057 36.93472,-10.3588 8.86433,-9.66822 15.26636,-43.50699 14.77389,-67.67752 -0.49247,-24.17055 -2.85916,-55.09848 -12.31158,-73.89282 -9.18449,-18.26159 -20.11035,-23.77599 -36.93473,-22.09878 z"
       id="path3971-4"
       inkscape:connector-curvature="0"
       sodipodi:nodetypes="csssssssc" />
    <path
       style="fill:url(#linearGradient4029);stroke:none;fill-opacity:1;filter:url(#filter5273)"
       d="m 464.95393,640.82604 c -26.87005,20.85965 -37.1231,41.01219 -38.89087,73.5391 -1.38197,25.42814 -4.52782,69.48729 9.89949,102.53048 10.96016,25.1023 25.14234,42.19861 43.84062,43.13352 42.42641,2.12132 71.77135,-25.10229 77.78175,-51.6188 4.29219,-18.93613 4.85324,-46.97507 -14.84924,-61.51829 -17.51874,-12.93131 -32.52691,-15.9099 -51.6188,-3.53553 -15.47321,10.02894 -20.93711,25.56927 -17.32412,36.76955 3.53554,10.96015 12.49585,20.12652 22.27387,18.03123 9.89949,-2.12133 15.55635,-7.42463 16.97056,-16.61701 1.41422,-9.19239 -0.7071,-14.14214 6.36396,-14.84925 7.07107,-0.7071 10.60661,4.24264 9.19239,13.43503 -1.41421,9.19239 -1.41421,19.79899 -14.84924,28.28427 -13.43503,8.48528 -32.52691,6.01041 -41.01219,-0.35355 -8.48528,-6.36396 -18.20323,-26.83622 -17.67767,-52.3259 0.7071,-34.29468 -2.35974,-50.36908 9.89949,-67.88225 12.37437,-17.67767 28.99138,-20.15255 28.99138,-20.15255 0,0 16.97056,-0.7071 19.79899,11.31371 2.82843,12.02082 9.19239,18.38478 16.26346,18.38478 7.07106,0 19.79899,-2.12132 16.97056,-23.33453 -2.82843,-21.2132 -34.64823,-35.35533 -47.37616,-38.89087 -12.72792,-3.53553 -29.69848,0.70711 -34.64823,5.65686 z"
       id="path3991"
       inkscape:connector-curvature="0"
       sodipodi:nodetypes="cssssssssssssssscssssc" />
    <path
       style="fill:url(#linearGradient4031);stroke:none;fill-opacity:1;filter:url(#filter5259)"
       d="m 587.09012,647.06641 c -22.65523,14.47158 -31.3,28.45259 -32.79048,51.01845 -1.16519,17.64101 -3.11048,41.8435 9.05378,64.76752 9.24096,17.41496 21.90756,28.49686 37.67091,27.80297 30.8217,-1.35675 50.27071,-29.7581 55.33832,-48.15418 3.61893,-13.13712 -0.15067,-34.71072 -16.76264,-44.80021 -14.77076,-8.97122 -23.18211,-7.50211 -35.74373,-1.03859 -13.14714,6.76479 -18.36004,21.27445 -15.31378,29.04475 2.98096,7.60371 10.53576,13.96296 18.78001,12.50934 8.34667,-1.4717 13.11619,-5.15091 14.30857,-11.52821 1.19239,-6.37731 -0.59618,-9.81124 5.36572,-10.30181 5.9619,-0.49056 8.94286,2.94337 7.75047,9.32068 -1.19238,6.37731 -4.72791,15.85706 -14.64131,23.86512 -9.93061,8.02197 -21.07122,3.60823 -27.16485,0.60738 -7.54201,-3.71411 -12.7737,-10.74691 -14.19765,-24.63433 -1.46396,-14.27757 -0.36944,-29.3901 8.34666,-45.85651 6.09793,-11.52018 21.94382,-15.98102 21.94382,-15.98102 0,0 16.80857,1.50944 19.19334,9.84899 2.38476,8.33956 7.75048,12.75462 13.71238,12.75462 5.96189,0 16.69333,-1.47169 14.30857,-16.18855 -2.38477,-14.71686 -29.21333,-24.52809 -39.94477,-26.98091 -10.73143,-2.45281 -25.04,0.49057 -29.21334,3.9245 z"
       id="path3991-9"
       inkscape:connector-curvature="0"
       sodipodi:nodetypes="cssssssssssssssscssssc" />
    <path
       style="fill:url(#linearGradient4019);stroke:none;fill-opacity:1;filter:url(#filter5329)"
       d="m 566.56931,427.81012 c -11.31371,18.38478 -8.48528,36.76955 7.07107,45.25483 15.55635,8.48528 38.18376,22.62742 48.08326,12.72792 9.89949,-9.89949 5.65685,-38.18376 -5.65686,-55.15432 -11.3137,-16.97057 -42.95673,-13.96536 -49.49747,-2.82843 z"
       id="path4011"
       inkscape:connector-curvature="0"
       sodipodi:nodetypes="csssc" />
  </g>
  <g
     inkscape:groupmode="layer"
     id="layer3"
     inkscape:label="moustache"
     style="display:inline">
    <path
       style="fill:url(#linearGradient3100);fill-opacity:1;stroke:none;filter:url(#filter5343)"
       d="m 323.09375,500.90625 c -31.75688,-0.11149 -56.28125,17.89286 -69.09375,28.875 -20,17.14286 -73.40575,70.65906 -122.84375,74.28125 -34.223731,2.50748 -67.169643,-8.57143 -74.3125,-30 -7.142857,-21.42857 -4.673625,-40.85872 6.96875,-52.25 15.382525,-15.05076 23.03125,-17.5625 23.03125,-17.5625 0,0 -30.645666,1.40845 -47.125,21.25 C 28.029968,539.5736 21.503501,552.84956 24,588.375 c 2.180631,31.0306 17.077213,60.10705 61.4375,74.28125 51.59685,16.48646 157.125,4.29018 207.125,-14.28125 50,-18.57143 90,-52.875 90,-52.875 0,0 37.4178,34.30357 84.1875,52.875 46.76973,18.57143 145.51785,30.76771 193.78125,14.28125 41.49437,-14.1742 55.39773,-43.25065 57.4375,-74.28125 2.33522,-35.52544 -3.75386,-48.8014 -14.6875,-62.875 -15.41466,-19.84155 -44.09375,-21.25 -44.09375,-21.25 0,0 7.14252,2.51174 21.53125,17.5625 10.8902,11.39128 13.21264,30.82143 6.53125,52.25 -6.68138,21.42857 -37.48728,32.50748 -69.5,30 -46.24402,-3.62219 -96.1984,-57.13839 -114.90625,-74.28125 -18.7079,-17.14285 -64.15757,-51.41072 -120.28125,-7.125 -21.5625,-15.91518 -41.65392,-21.68746 -59.46875,-21.75 z"
       id="path2995"
       inkscape:connector-curvature="0" />
  </g>
</svg>
